<mxfile host="app.diagrams.net" modified="2022-08-13T11:17:29.462Z" agent="5.0 (Windows NT 10.0; Win64; x64) AppleWebKit/537.36 (KHTML, like Gecko) Chrome/103.0.0.0 Safari/537.36" etag="lJSPvPKE05Ioj5YyvBSY" version="20.2.3" type="github">
  <diagram id="rkluiM62-6Yzq2l3VNH6" name="第 1 页">
    <mxGraphModel dx="1422" dy="706" grid="1" gridSize="10" guides="1" tooltips="1" connect="1" arrows="1" fold="1" page="1" pageScale="1" pageWidth="827" pageHeight="1169" math="0" shadow="0">
      <root>
        <mxCell id="0" />
        <mxCell id="1" parent="0" />
        <mxCell id="0QcBcMVcxcDUxxgfM1Hy-7" value="" style="shape=image;verticalLabelPosition=bottom;labelBackgroundColor=default;verticalAlign=top;aspect=fixed;imageAspect=0;image=data:image/png,iVBORw0KGgoAAAANSUhEUgAAAN4AAABpCAYAAABVqJ16AAAFzUlEQVR4nO3dXXbdKAzAceeeWdNM9//UdiFJdpE++cRlkBAYLAH/30tPnYQPG9n42he9vX98fh0AHvXybgCwIwIPcDAk8H7892/XsnqWl5b9ZBukcs7to/qJeF7H8feBj3bwf/76/b9tvYLAWlauDS2kcn7++t1UR9RjhrLXcXwPiHMA3D2QvQZqTq+gu/b5bpkeA//sQ69jhmdNd4+nBbU0+EqDcuSJYoTriUOauiK2fyy/dB7I9GBfz7S5n+X+vvTzXL1W2lQu/b82YGvamU5Za/plDfja/TPbiWRHxSvedUqTC7L0/iR30HMDXytfKrun3BVDa+f5/7Sd6TT9JPVLKkeilYN5VV3xUr2CwnNAnQO6d4D3DJRSOSPaj7FMgdfjoGoD/OlBow3UXoFYug+rIU2Vc1dYzOHt/ePzKzcVukqnVtr0rPSz0uOB3D1STd1S+Xfb2dJna/tzgSmVY91OEMb2tvO7mgxQeNk68AAv0z3HA1ZA4AEOCDzAQfjA46ExVhQ+8IAVFR+ga8+vIpmlncBxFAJvlrcjZmkncGKqCTgg8AAHBB7ggMADHBB4gAP1U83S13CimKWdwKn4HG+WQTxLO4HjYKoJuOD7eIADrniAAwIPcBA+8J74WtBuXz3arb9XXn1P6w0feKONfKHaM2uSlploxf5aeS0MnNZrXtA2+sf1PZ7jlZY59JQbMJb1QTUr9TdVMx489oNpCffoWjPnpAdy9axJK/dXWv5fWkJfW4Z/1Ji/ll0MvEhnQXzb7bis1l/TVDO6p14ZmyVrUu+cDZH7m17p7qjJ7qRNTy3ZoJb4cKV1qtlaR+SsSb2yLM3S3+vv3u13qT25YEvr1H7/aokr3lOkHdnrChvtfnq3/uZIASRdxY/D1q+tA+/ceTVn15F1jr6PWbm/NWXVfjqaTqfTOqUPrbSyiu9qen/dxrqTWttp2bFSHS0ZhNI6LX9j/VRO+/1c3av0N6emPTX7Idcerf3Svg//kvQTzxBneE7Z0279vfLqe1ovgQc4CB94wIqWeJwAzIbAAxwQeIADAg9wQOABDgg8wAGBBzgg8AAHBB7ggMADHBB4gAMCD3BA4AEOCDzAAYEHOCDwAAcEHuCAwAMcDAm8GbLGnGW3/E1re6S/PbfPsM4k+ngdx98HPtrBLy0L1+oso3a58DurVUuLNrWugBz1mKHsdRxrZY2xlnHt890g8hj4Tyxbj3Gmu8fTgloafKVBOdvygdqitNI2xGJOTHkcsbPG5P5e2i5dISz9sm6XtmnbJbX7Z7YTyY5MiSlnyBpTK3fF0NopZaSRtluyzFhOLHfvKxFT1RUvtULWmNpEHrXl9lAqh9W252MKvJmyxlhoA7VXIJbuw2pIU2UpIQbie3v/+PxaJWuMVv7ddrZmh7G0PxeYteUThHPZOncCAxRetg48wMt0z/GAFRB4gAMCD3BwO/B4qAvU44oHODA9QB9Je54GrMo18Hj7Artiqgk4eOSKp71kzVQTO3ok8KSAYqqJXTHVBBwQeIAD1081ucfDrtyf4xFs2BFTTcAB38cDHHDFAxwQeICD8IHH146wovCBF8ksWZC0Op+uL2JSlQjtKT5OmOk5W+4VtKtI7c8teHv3lTnLcvpPkpYvLC1nuAP1ijdTRpqzrbkTxS5ZkEqLBde2f9Txlpa97y1ybgmmmkGMyII0g11fjHd/c6Wn9KpXOqCrZUFK6yi1pTY7Umt/tTbm/i/VdbKsCl7K7qStaC5NkXueIJa44uXOmpagS6eg1x0uZQXS6rBkCxqdBUmitV/r73W7tj9ashpp+09ri2V/StPZ0lfUcuNhxK3WUle8WitmQWoZID362zowe56AZpqyLhV458G//lv6/Z51jii/1dN198yO1KMN0RXf1fR+nGDdmek9Qcu9wQpZkKTtpSxFd9uf255T6mupHOv9t9R+yzGWfrfn45nwL0nPdBYDrJb4cAWYTfgrHrCiP0SnPisMJZI5AAAAAElFTkSuQmCC;" vertex="1" parent="1">
          <mxGeometry x="440" y="590" width="222" height="105" as="geometry" />
        </mxCell>
        <mxCell id="0QcBcMVcxcDUxxgfM1Hy-9" value="" style="shape=image;verticalLabelPosition=bottom;labelBackgroundColor=default;verticalAlign=top;aspect=fixed;imageAspect=0;image=data:image/png,iVBORw0KGgoAAAANSUhEUgAAAN4AAABxCAYAAAC6LR2MAAAGH0lEQVR4nO3dS3LcIBCA4bHL55hjxL7/ys5BktwiWZHCFN0NCNQ8/m/jsqRBINECjTTw8uv3n78PALd69c4AcCICD3BA4AEOugfex/uPrmn1TC9N+848SOmE5aPKiTm9xid+tpP/+fXz2/+98hk+X5JOmodWUjqfXz+b9jHrOUOZ13DSQwW4eiJ7VdTUx/uP/3m8ks+QzuPx6FJej4rf61jAzzb3eFLlsyrlqAvFKPGFQ+q6Yn5v1gbhRKYnO77S5tblPm+tz+03SD+Tbq915dL/tQpbk8+0y1pTrtKALz0+wWoXklOpLV7cpckFWXp/kjvpWoDk0pfSTtddkWsxrEDO5TPtpufyn7uAlHYPtXSwtuIWL9XrylpToXoEXSxU6N6tRM9AsdIZkX+MZwZej5OqVfCaLlePvGjp9ApE6z6shtRVtrremNvL8/n89q6mdi8hdbWkbdN1Utcx95nar/q19K/ms6XMuS5mbttcOaV0SpcThPN7OfUlaSooPB0beICnbZ7jASsh8AAHBB7gYOrA46ExdjV14AG7Uh+ga8+vZrJKPoFADLxV3o5YJZ9AjK4m4IDAAxwQeIADAg9wQOABDsRvNa2fAM1ilXwCMfU53iqVeJV8AgFdTcABv8cDHNDiAQ4IPMDB1IF3x8+CTvvp0WnljXmVPbffqQNvtJEvVHvOmqTNTLRjeUt5DQyc22/RgLazf13f4zmeNmS8t9xI2/E6a/ucncqbqtne6ziYQ7jPrnXmnPSCkg7HvtusSTuXVxr+XxpCXxuGf1SdT9NWA2+mqyCwE7OrObu7XhlbZdak3nM2zFxeqTvaomZ2JyuPuXRSy3+50tr1at1HrtKFdUHJHBG5CpW7t0nTTtdJ+bxilfLG214tt5WfXLCl+9S2Ty3f4t1FOpC9Wtjaby1H3wacVt4cKYCkVvzxKC/XsYEXDl7pCe1x4rV9lqbfWgl3Lm9NXmuOQbyt1L2UvrSy9qu+q+n9c5vSg9Saz5IDK+1D26e1TupK5T5TcgWtuf/Yrbw5NfmpOQ5hfck9Xm55ceB5u6tLddK3t6eVN+ZV9tx+jw88wMPUgQfsavnHCcCKCDzAAYEHOCDwAAcEHuCAwAMcEHiAAwIPcEDgAQ4IPMABgQc4IPAABwQe4IDAAxwQeIADAg9wQOABDgg8wEH3wOs5oOzH+5hZY0LaLZ9pzY/02bB8hXkq0M+bNbyZp9zIvvG6ViGdK2Ms1u5fGxw1zlMp76EXcc1rOgT21SvvqErQa6j2OGha06kdB7K3O4atx1jb3ONJlc+qlKu1FtqgtNIyzKdoYsrHY+5ZY3Kfl5ZLLURJuUqXl5SrpourpZNa7UJyKnNiyrQ7k97nWOPGawHSa9aYWrkWQ8tn2h23lpfMMlPSMtXMPoO1FLd4qV5XVs9ZY2on8qhNtwcrHUbbXpMZeCvNGnM1nV6BaN2H1ZC6ylbXG3N7eT6f34ZwX3XWGC39q/lsnR0m/UxuW+0RQ2n6BOF6jp07gQoKT8cGHuBpm+d4wEoIPMABgQc4uBR4PNQF2tDiAQ7MB+gj8dMWnMot8Hj7Aiejqwk4GN7iaS9Z09XEqYYHnhRQdDVxMrqagAMCD3Dg9q0m93g4metzPIINp6KrCTjg93iAA1o8wAGBBziYOvD42RF2NXXgzWSVWZC0fd69vxlnQZolP+rjhJWes+VeQYvNlP8RsyCVDKd/J2n4Qms4w1OILd5KM9KEvOYq8CmzIFmDBdfmf9T5loa97232uSXoak6udRakFZz8Yrzrmys9pa2edUJ3mwUp3YeVl9rZkVrLq+Ux97+0r6BkVHBrdidtRHOpi9z7ArF8i1dTWdPPSJVOmhVI20fJbEGjZ0GSaPnXyhsv145Hy6xG2vHT8lJyPKXurPUTtVx9GHWrtU2LV2vHWZBaKojXfnvte0Rad9gm8MLJj/9a2/fcZ2v6o6YJu1PP2ZF65GEF6rua3o8TSg9mek/Qcm+wwyxI0nJrlqIr+a8JOOs4W+mU3n9L+S85x9K2vR/PTP2S9GpXMaDU8l+uACuausUDdkWLBzgg8AAHBB7ggMADHBB4gAMCD3BA4AEO/gHTh5LcPF/I5QAAAABJRU5ErkJggg==;" vertex="1" parent="1">
          <mxGeometry x="440" y="738" width="222" height="113" as="geometry" />
        </mxCell>
        <mxCell id="0QcBcMVcxcDUxxgfM1Hy-11" value="" style="shape=image;verticalLabelPosition=bottom;labelBackgroundColor=default;verticalAlign=top;aspect=fixed;imageAspect=0;image=data:image/png,iVBORw0KGgoAAAANSUhEUgAAAQUAAAEFCAYAAADqlvKRAAAQK0lEQVR4nO3dUZacuA6AYZKTNU1n/0/JLCTJLnJfLmcst2xZILAM//cyk4YyMlAqu4DSl1+///zdAOD/vs4OAEAuJAUAAkkBgHBJUvj+8U9oW5Ht1W3fGUOrnf3vV/XzqFWOI2J927bPB//Hz3+nBKP58fNfEV/5/2fi3Nv5/vGP2U4dw1Gtdvbte7dR74unHMeoY4xjvm7bfzv+x89/Q94AVx3I/Q18Ns4yEUT0d8YnoLYvnnAco44xjlvqOwXrJG2dQNaJtdqnUZkAVnzTtPa31a8V+7qibyMr7QejPmBlJteWaa+3lmvbteLZtU42bb3eSeeJs5yGePs1moy8+2e0nazHsbX+asl7VeZIoRzOaSfOvmynHbjem1drv9V2+fqzQ0vtE8lKMtp26yG71S9v/L12PJ56HBHPNVKoRWXumSdFPR+PbjeC1c5o/KsdxyuOC2xDSSHiwPTefJ5hdEQsvXaikkTkvL81/dE+qT3tHI3lquN4tF+I9eXX7z9/rUtZvUtfnstJrQPceo0W19H2z8Z5pM+j8fcuU46235qm9OLMfBxb7ZAgrvflzQ9EcZIBn706KQD4bKn7FABcj6QAQCApABDSJwVubAHulT4pALiXefPSKo+xrhInkF03Kaxyd9kqcQIrYPoAQCApABBICgAEkgIAgaQAQOhefbAecc1ilTiBFZj3KazyBlslTiA7pg8ABH5PAYDASAGAQFIAIKRPCnc8Ov22x7Pf1t/SrL6vtM/TJ4WrXfnwVOSJ8P3DV7W5tf5T+ztqVvGZlYreDBeDyX7JL+I+Besn0mfSKi+Vy6z1NU/qb82zfub9MMNQ2bjsytJknoxcJ7u6BFx0EZco9LdffNZav3Wz29Vl7FYZLZhJ4e1ZM6O3HZO39Xe2oelDdnfd5qwVZq23ry3TXm8t17ZrxWOt77VCf1tTjCOseKyqV1Y7q3jEF41Hh9NHt6G9IfZlu5Fai9qvRWlz6brt8vWe9T1W6W+57tl+W/FoiaDeZm/9VTxipHCX1kGO+kTIdhK9rb+a1pu7NfrZtjX61fPqpLAf2NGTPOLN0NvmaPtHrwY9ub+eWD37oFy3NWVofYF7Zrszmc8+zH4keXRHHo1z5KC3ttHbprVMi7H1mtFvz3vra9t+Sn81nng8+0GLpxd/a99nlv6BqDt25CoHK8rb+lua1feV9jlJAYCQPikAuNcjLkkCiENSACCkTwozr/mufr3Z6239LT2170f6lT4pzHLlF5yRJ+D3Dx6pjnDHHYgz9sORfj2+6nRE/NZ17Jm023LLZdb6mif1t+ZZf6X9sG1xib07UrjjmYIIrTiPxt+6Qy1qP1z5iUx/P68zun7rJqns+2Hb+qMQb+xMHx4k0yfZHd7W357IfWFWiNplvolodpzaU4T7v3vLtNdby7XtWvFY63ut0N/WFCNStv0QZWikkDkhlGYlhHp4WT8oYz0sU/9NS3LaXLpuu3y9Z32PVfpbrhvR71rG/RBl6ItGEoK9bU1UPNm+y3lbf1ueuh+6SeGtCWHPzqNtRmy7t83R9o/uhyf31xOrd/9l2Q8Wb7+6zz5omWrW8Nxap1bP5cq/ebdrXZqqt9HbprVMi3Hkcqt321pbT+uvxhPPU/ZDaFLIYPa0YIWRUpS39bf01L4f6RdJAYCQPikAuBc3LwEQSAoAhPRJYeY161Wul0d5W39LT+37kX6lTwqzXPkFZ+QJ+P2DR6cj1Jf1rjBjPxzpF49OO9s+084VtNtgy2XW+pon9bfmWf/J+6HHdUdj1suDrTiPxl+vV7d1dj9c+YlMf9s37ljr1/1+yn7w3rHanT5kTABoe9vxelt/7zJUNq5+CiybVpY8chvsEdpTcvX2tWXa663l2nateKz1vVbob2toHSnLfogezQ990fjjZ+5fXtq1hlFXxl9uQzsR9mW71jy/9W+t/Vbb5es963us0t9y3Yh+1zLuh6jp/WMKzM5+RkITFU+2ZPy2/rZk2g+R5z+PTiu8X8xEbLu3zdH2j+6HJ/fXE6t3/62yH7z9ekTVaS2j1nO58m/e7VqXpupt9LZpLWsNC7XXaHGNbltr62n91XjiWWU/aM58z5D+gajZ04IVRkpR3tbf0lP7fqRfJAUAQvqkAOBePPsAQCApABBICgAEkgIAgaQAQCApABBICgAEkgIAgaQAQCApABBICgAEkgIAgaQAQCApABBICgAEkgIAgaQAQCApABAuSQqRv9v//eOaKsN720deczSe1mv3v69S7wDP9m3b3lldd2/H88Ow9c+ge7ffqlLV+mn1kXjqNoCzvm7bfydUVHm1q07QqDJw5Rv6aDve3+GPdkdJPLzTUt8pHCkK0/v7aLvZ9Aq3tP4GjDpUdXpWdV1r/dabW1uv92bq9Wv07yP98kxbeu3UVktyyMUcKWSsrhsxZB4pK6f1q9Xf+u+tfnnj77UDXME1UqhFfSLNPNm9xVW97Uaw2qGKFiINJYVVquuO6rUTlSSseb9Ha/pzpogo0PLl1+8/f1eprjuy7Vb7Z+O0Kjafib93mXK0fRIEory6liRvHuCzVycFAJ8tdZ8CgOuRFAAIJAUAwumkwA01wLMwUgAgDN28dCUe/wVymZoUuCsPyIfpAwDhlpFC74Eqpg9ALrckhdabnekDkA/TBwACSQGAMPXqA98pAPlMv0+BRADkwvQBgMDvKQAQGCkAEEgKAIT0SYFHs4F7pU8KmaxSTbu3zbu3l7GadrZ4sjEvSa50H4F223QpU/xXVNMeKeF3p9ZP2Fs/aY+5uiOFlSob77Fqb663VNO2Cu1447/qeLdK7UWj1uYxTB8SuKqa9gp4CC6f6Xc0RqpHC6NvNm24vWI17botKxZvle2j/e3FqP27ta3dSLUvq0p4r1JZa9rzluT1iJGC9mkzkhDq4Xp5MrSqS/e2MVJ1+upq2i29+Hv9Lf/e2x9HqmP39l8vlpH92ZqiWI/xa+fDCtPnSI8aKXg9sZr2kZM3or9H3zSRn75v+SS/2qOSwn5ilv+11o/c5tH2r5hX3/0GiayyHREDjjOffZh9SXL0QNdz0CNz0SdU02793ap2fTZ+7e8aq69WO6Pf97TiHznGrXVnX+K9S/oHosj+wL0e8UUjgDjpRwoA7sVIAYBAUgAgkBQACCQFAAJJAYBAUgAgkBQACCQFAAJJAYBAUgAgkBQACCQFAAJJAYBAUgAgkBQACCQFAAJJAYBAUgAgXJIUVqnOPNpuVAytdt5QnTlj/6D7tm25y2NpFYHKZUeVZcVG6kNEnNCtdo7WS+j9RH3ZbgZafN6fxsc9vm7b+6ozlydjRH9nfAJq+2KV47ht/XqaEccYxy31ncJIfUjP30fbzSZDNaazrCI2rWkWrjdUNq5XkWekWs/RasXWm7xXoLT399Yn0JE4W9WNR/rlKSvXa2dUtuNoxVlbLXmvyhwp9Krx9qoVl3pv3la14lY14f31Z4eWI2XEtH+3yp7Vsbb65Y2/145HxuOInFwjhVrUgZ45LKzn49HtRrDa8dbbrGU9jpQMnGMoKUQcmN6bzzOMjoil105Ukoic97emP9ontaedo7GcPY6etkkM9/vy6/efv9alrN6lL2vdepnnEpQW19H2z8Z5pM+j8fcuU46235qm9OLMfBxb7ZAgrvfqWpKcZMBnr04KAD5b6j4FANcjKQAQSAoAhPRJgVtbgXulTwoA7mXevLTKY6yrxAlk100Kq9xdtkqcwAqYPgAQSAoABJICAIGkAEAgKQAQulcfrEdcs1glTmAF5n0Kq7zBVokTyI7pAwCB31MAIDBSACCQFAAI6ZNCxkenM8Z0pbf1tzSr7zP3efqkkM2VD1tFngjfP3xVnlvrP7W/oyLrd6yw3W1zFINZ+ZKf9yfbPe2WMu0jrVJTucxaX7NSf7fNd956zofM+yHCUNm4lfU+/bzl2OqTrC4ZF130Jcrb+rttY1W1yv/v7R+rVOBV75FZowUzKayeBVePP8Ib98Eb+xxlaPqQnbdG4l0/yKIVct3/3Vumvd5arm3Xisda3ytbf3sxel/Xa6sVj1Uly2pnlkckhTPfCVw9ZC//fz/Zte16hq2t9rX/r9vzrL96fzWR/R6JR5t+lXrrz/KIpHDEHQfAO4KJan+Wt/VX0/oeoDX62bZ8/XplUjiaEPYDO/raiDdDb5ueb9bf1N/R7YzyXsXwjNR6scwaOZjPPsx+JPnsjtHib2VybzzWpal62719aS1rDT2113iG5VY/nthfjScez37Q4unFf9f3XT3pH4jKMs8qZYzpSm/rb2lW32fuc5ICACF9UgBwL559ACCQFAAIJAUAAkkBgEBSACCQFAAIJAUAAkkBgEBSACCQFAAIJAUAAkkBgEBSACCQFAAIJAUAAkkBgEBSACCQFAAIlySFyN+x34uJXMFTUzEihlY7+9+z/f7/KscRsb5tW+4quvXPY0f95PzezsgPw0YV+uwVCiljGtX7SfWy3Qw8x3F2WYG3+7pt61QTLsuRnYmzTAQR/Z3xCajtiyccx6hjjOOW+k7BOklbJ5B1Yq32aRRV/zEbq19P6mtmQ2Xj6hp45b97y7TXW8u17Vrx7Fpv7pHipkfjLKch3n55qlL12hmV5ThaVZCurkmJPnOkUA7ntBNnX7YbqQGonRS9YaTW3tmhpfaJZCUZbbv1kN3qlzf+XjseGY8jhX5yco0UalEHdOawsJ6PR7cbwWpnNP5Mx3EkZpLGHENJIeLA9N58nmF0RCy9dqKSROS8vzX9sYbhVjtHY7nqOB7tF2J9+fX7z1/rUlbv0pfnclLrALdeo8V1tP2zcR7p82j8vcuUo+23pim9OGcdR81of0kQ13t1LUlOMuCzVycFAJ8tdZ8CgOuRFAAIJAUAQvqkwK2twL3SJwUA9zJvXlrlMdZV4gSy6yaFVe4uWyVOYAVMHwAIJAUAAkkBgEBSACCQFAAI3asP1uO1WawSJ7AC8z6FVd5gq8QJZMf0AYDA7ykAEBgpABBICgCE9Ekh46PTGWO60tv6W5rV95n7PH1SyObKh60iT4TvH74qz631n9rfUZH1O1bY7rY5isGseslv9OfRz7Z9pp0raJWaymXW+pon9bfmWT/zfogwVDZuVWXJsvKkaf19tL1dXTIuuuhLFPrbL1Zrrd+6OS5qP7TMGi2YSeFpWfCNOIbwGJo+ZDdSI3HGFEgr5Lr/u7dMe721XNuuFY+1vleW/vaOe2uKcYQVj1UtzGpnlkckhZE54IyEUL4ByqGmFo9n2NpqX/v/uj3P+qv3t7Vd63WjRuLRpl+tGLN8d/eIpNAzc0ePjGCuaH+WTP2dddxb3wO0Rj/blu84PjopRJ8Y+4EdbTNi271tjrZ/dD88ub+eWD37wDtS68UyK7GZzz5EXLo748yOaWXsetnRE8S6NFVvo7dNa1lr6Km9xjMst/qxYn81I1PM0Xg8+2FfPvKdgvb3lElhtizzrFLGmK70tv6WZvV95j4nKQAQ0icFAPfi2QcAAkkBgEBSACCQFAAIJAUAwv8ArBIXwWWI3VEAAAAASUVORK5CYII=;" vertex="1" parent="1">
          <mxGeometry x="160" y="590" width="261" height="261" as="geometry" />
        </mxCell>
        <mxCell id="0QcBcMVcxcDUxxgfM1Hy-47" value="&lt;font color=&quot;#ea6b66&quot;&gt;虚表指针&lt;/font&gt;" style="text;html=1;align=center;verticalAlign=middle;resizable=0;points=[];autosize=1;strokeColor=none;fillColor=none;fontSize=16;fontFamily=Helvetica;fontColor=#B266FF;" vertex="1" parent="1">
          <mxGeometry x="70" y="999" width="90" height="30" as="geometry" />
        </mxCell>
        <mxCell id="0QcBcMVcxcDUxxgfM1Hy-48" value="&lt;font color=&quot;#b266ff&quot;&gt;虚基表指针&lt;/font&gt;" style="text;html=1;align=center;verticalAlign=middle;resizable=0;points=[];autosize=1;strokeColor=none;fillColor=none;fontSize=16;fontFamily=Helvetica;fontColor=#97D077;" vertex="1" parent="1">
          <mxGeometry x="60" y="1080" width="100" height="30" as="geometry" />
        </mxCell>
        <mxCell id="0QcBcMVcxcDUxxgfM1Hy-49" value="" style="shape=image;verticalLabelPosition=bottom;labelBackgroundColor=default;verticalAlign=top;aspect=fixed;imageAspect=0;image=data:image/png,iVBORw0KGgoAAAANSUhEUgAAAN4AAAEPCAYAAAAtcnqJAAALvklEQVR4nO3dXbLbKBCGYY7L68gyZmb/V0kWkmQXmStOEULzL3U3ep+qqZpjOZKM9QksAfr48fPX7wDgVi/tHQCeiOABCggeoIDgAQoIHqr++/cflX97OjF4//37z+d/nu3cfw/lsfvzfv32ffrff/323Xx5aXlLC2KB311w+fZWvvjd8gMp/X9L+3mV2ueNy55QDjuYa2rGL+7rt+9bzphXHQixNti1n7vs+rx5bVf7vOmy0onTStlYYi54XjztzC593jygveXy9DB+NjVHm02lpoXUTNzZfMy3m/5dW1b6963lpe229ucOrXJu7XvP521te7Wp+bQTV+4dwp9nrZ4zUf7+njPejoIubTcGqHQhoKfpU2pOtf6/9LlWL0SMKm1LatZJ+1j7Hlvb7SkryP66uNJb+NIXXDrzSa/PkE4MO3/bWDdTnlIgdnxegjbur+D1nLFmaoBdZ8QdX3I8cKVao4f2mf3q8szLaHY72uVk1UccnSD9Pkq1fs/t+I3Xem/eTOy5xC0ta9UAI5/X0m+8fH96fuPlr8dlPe+dLecnB/KDYUGoWQnI08NVQ/AABdzHAxQQPEABwQMUEDxAAcEDFBA8QMFS8Dx0rwIsosYDFEzdQL+ypqOnA55gqecKXYKAOTQ1AQX01QQUUOMBCggeoIDgAQoIHqCA4AEKCB6gwHTwRnvIWHmoiJX9gF2mgzejZ2rCq0NBbx60VIN3yqO6UoQCFlSfj2fxaThanv75sddxTU3AA/HBlN7kNdLoU4F6ZluW1ll7XgRNW5QcU+OVnhTU+rsUmlLTOl+WvpY2yVOEDjXHBE8L4cKMo4NHcw9Wib/xNJ+Gc4eZJ5uWftcRbMwwPRB29KBeffjlrhBpPJ4ZvhwVvNVtRQQGVzMdPOBUR19cAawieIAC08GjfyROZTp4wKm6gkfNA+zVDB6hA/ajqQkoaI5A93Iz+bSR8jhbcwS6B+nQHMIHD6oDYdOD2HoQCRw8qY5OiKyHLgT6V8KX7qualmuU2MTkdx68aM654qUm8bKfQAjcTgBUMCwIUECNByggeIACggcoIHiAAoIHKFgKHjergTnUeICCqft4V9Z09EDBEyzdQPfQeRqwiKYmoIAuY4ACajxAAcEDFBA8QAHBAxQQPEABwQMUuA0e/UTt4zuSuQzeSI+Zu7/80dnOTp4ZjQmGZc1ZxjAmnhB6DzitgzPfJl3/7uVuWNBo/9DRA+opZ+hYLldPfU+tV+ayqQl4N9XUzJ+psNNsDZWeWfPmXj4dfev90nta61shrae2zWhlf7S2+3RTwUsPVO2Czpsy6f6UmjnpdO/5vsdl0jry9aXvXS2L0npq6y9ta2Z/tLb7dI+9uLLj4Lj694u0fqn2DWFPC0Rru0+yFDyNM1utVrp7f/Iz/Z3rH6mRNLdLDVjmcjxe6cuUXotKB5LUbCotrx2ALa0Dr7ZPUlNZWn/r89XWe8V2CV6Zy+CFwBfqAd+RzG3wAM+4jwcoIHiAAoIHKDAdvNFL9FZ6+lvZD9hlOngzRq6iXRUQruShpXoDvfeekEd0c4ImscaLB+PVw0Ys6AndyZ8f9zuuqQl4UL2Brt3UnJnioTQkSFoWjXSHKq2z1nGYJixKjmlqlob4SH/no69Lr5VOOqX3p+WUInSooam5iHBhxtHB0xouBLSItxNqI7u9K03xkC+rDRlKy4ZgY4bp0QmjB/XqvB+7QsT8I2g5Knir24oIDK5mOnjAqY6+uAJYRfAABaaDZ/2mPTDLdPCAU30Gr1S7xPFq1DzAXu8Q5NAxPyJwjVcI3LcC7ib+xvNW29EkhifNiyteQudl+BIQQsecK9ZDFwJPHYU/zYGwHkiDUQGrPn78/PW79VSdfNldZqZ+iAghLDPdSdpTrQuMoOcKoMB0jQecihoPUEDwAAWmg8e9OZzKdPB60FUMHlWHBcXXLR/Y3G6AR68Q6qGjDySwnzgsKL95Tc0C7NM1OsFDbedlP4EQGsHz1NT0sp9ACI3g0bwEruH+dgLg0R+THaUXVLw9LYgHhcAT052kGRaEU9HUBBSYrvGAU1HjAQoIHqCA4AEKCB6ggOABCpaCR79IYA41HqBg6j7elTUdPVXwBEs30OnSBcyhqQkooMsYoIAaD1BA8AAFBA9QQPAABQQPUEDwAAVug0c/UXg+BlwGb6THzN1fTpzRune7p8yAvfMz9JaJ5wmMXQbPsjij9cj7NaQnCGsHr/Qsj5O4GxY02j909MA+7QuWpPOn7qg5rjyB1PbNa61HjQfzTuyI/575R+kZZvfZZraGSs98cR2l2aV73i+9p7W+FdJ6atuM7tifneVc20+PtdeMqeClBa59NqpNNV9qhsTXSvsel0nryNeXvne1LErrqa2/9UzDlf0praen3Gqv5aHr+bwnmwreCXacMK7+fSGtX6pFQth3wErr2XWiPT1YLUvB06jtarXS3ftz9Rm6tv6RmnDGzhNTaV07A6zd6prhcjxeqbCl16LSAdy6bN3zu6r3flNNbZ9aTbjafta2W1tHaT29+9jzvdT+zUiTtbZ+61wGLwS/BY59PB8DboMHeMZ9PEABwQMUEDxAgengjV6it9Lh18p+wC7TwZvRc+n+6lB4vdKG+7xD6LuncsrB5LU3O87yzu+FxL+l15/q6Z8fex3X1AQ8eJ9Sq+XNx9FhKT3dsEaGC2n1H4UPnzWe94OkNFSl9XcpNKUR2fmy9LV02EzKe3niWq8QOEhWUG6Y8To5dDT3YNVftxNCqDe3TjEy1UJpWfq777SywfVMj04YPahX5xvZFaJd857gXEcFb3VbEYHB1UwHDzgVN9ABBQQPUGA6eHRmxqlMBw841WfPldo4NWoeYC9xWFD6N4C9aGoCCl6t2s7LzeRWcxmwRBwW5C10paE5gFXVYUFpDeKlJiF88EAcFhRrkHzgp3VeThB4to8vX7781VfTykxjI81dRgTAE9OdpD39zgRGcDsBUGC6xgNORY0HKCB4gAKCByggeIACggcoWAoevUSAOdR4gIKp+3hX1nT0VMETLN1Ap0sXMIemJqCALmOAAmo8QAHBAxQQPEABwQMUEDxAAcEDFLgNHv1E4fkYcBm8mdnH7jI6o/Ups1/v/Ay9ZfL123e3ZffW3oHTxBNC7wGhdfDk27TU9S8vkxOfT+9uWNBo/9DRL8rrGXRUOlHxjvBfFYh0ev7Sfnqt9Vw2NQHvppqaUjNgh9kaKj3z5c290szYtfdL72mtb4W0nto2ozv2Z2c51/az9dlOaWpOBS8tcO2CyJsa6f7UmialfY/LpHWUfnvsKovSemrrlx4ys2N/SuvpKbfaa1KAav8v7dMJHntxZceXePXvC2n9Ui0Swr4WiLSeXQf/yH6eFroQFoOnURi1WknzoSpXBLC2/pGacMbOE5P0NKoere/VayhdjscrFbb0WlQ6gKXmWml57cBvaR0YtX3quYo383Sn1u2EfD29+9jzvdT+zWh5ErybeS1w7OP5GHAbPMAz7uMBCggeoIDgAQpMB2/0Er2Vnv5W9gN2mQ7ejJ5L91eHwuuVNtznHULfPZVTDiavvdlxlnd+LyT+Lb3+VE///NjruKYm4MEfN9BLtVykcbYfqWVmhrFIr6WvS8taw15G9x/P8lnjSU1LaeSvNaWhKq2/S6Epfd58WfpaWk4pQoeaVwgcJCsoN8x4nRw6reFCQMtftxNCqDe3TjEy1UJpWTpNxGllg+uZHp0welCvzjeyK0S75j3BuY4K3uq2IgKDq5kOHnAqbqADCggeoMB08KzftAdmmQ7eKMbBwYujhgV56NoGhMCwIEDFizAB9/ucwr3USz9dZj2gNDHhyefFFWn4j5fQlYbmAFZVr2p6CB3g0UtqohE64DofP37++t0zFUK67C4zUz9EnDRgmelO0tS6ONVRPVcAL0zXeMCpqPEABQQPUEDwAAUED1BA8AAFS8GjYzIwhxoPUDB1H+/Kmo6eKniCpRvodOkC5tDUBBTQZQxQQI0HKCB4gIL/AZ9cnXnSw8Z4AAAAAElFTkSuQmCC;" vertex="1" parent="1">
          <mxGeometry x="160" y="909" width="222" height="271" as="geometry" />
        </mxCell>
        <mxCell id="0QcBcMVcxcDUxxgfM1Hy-50" value="" style="shape=image;verticalLabelPosition=bottom;labelBackgroundColor=default;verticalAlign=top;aspect=fixed;imageAspect=0;image=data:image/png,iVBORw0KGgoAAAANSUhEUgAAAN4AAACVCAYAAAA3+EQYAAAGI0lEQVR4nO3dbXLbIBSFYafTNbXd/68kC2m7i/YXHoL5FEjnXvQ+M52pLUeSMUdgC6S333/+/nsAuNQ39Q4Ad0TwAAGCBwgQPDT9+vlD8rc7qwbv188fz3+erdx/D+Wx+v2+f3we/vv3j0/z5aXwvbYwFPjVBZdub+aDXy1XkWYrpyfxe4/fc+l55JnsaoYP7v3jc8kR88yKYPFovur9pgeU8Dj9XErPx/tjsZyUTAbPE47ux905jF+6mqPdhfD6UpcjXray+5huN35cW5b7+9by3HYtaJVza9973m8q1/rNuPNB6xm8uCB7Klj6+rgQSwW6oqBz2w0BylWGnq5PqULV/m9BrjxL3brSZ1X7HEvu9J32LNkfV3oKtfYB546gpeePKFX8ld9trDtSnqXAjLxfQrdGNng9hVtrAVot4YqfqGeFiltqNTw4uzzTMjq6HcL66i0eJF36fhRrfZ9b8R2v9dq0m1j7btpa1moBRt7vlZWrp5x7vnvX/iYs66kPR8v5roF8Y3YCWmYCcudw1RA8QIDzeIAAwQMECB4gQPAAAYIHCBA8QGA6eB6GVwHW0OIBAodPoJ/Z0jHSAbubHrnCkCBgHF1NQICxmoAALR4gQPAAAYIHCBA8QIDgAQIEDxAwH7zRETJWbipiZT9gk/ngHdFzacKzQ8FoHtQ0g7fLrbpihAJqzfvj1e4Cczd3f/9YZ8uuJmBd9caU3uRuGPl49N8VqOdqy6V11u4XQdcWqa1avNydglqPc6HJda3TZfFzcZc8RuhQslXwVAgXRm0fPLp7sKj6HU95N5wrtO6eWruTUFw2BBujzE+EHa3Usze/XBWiVTfhxJ62C97stgICgzOZDx6wo+1/XAEsIniAgPngMT4SOzIfPGBH3cGj5QHW6QoeoQPWoqsJCHTNQPdyMnnH2fLYU9cMdA9KU3MAi7qvuRL+7wHhg3XV4MXXWwmPPfBygMB9Df2qablCh2k6nrrHuK+ua654qche9hPgdAIgwLQgQIAWDxAgeIAAwQMECB4gQPAAgengWT6pDlhFiwcIHD6Pd2ZLxwgU7G76BDpjI4FxdDUBAYaMAQK0eIAAwQMECB4gQPAAAYIHCBA8QMB18Bgnah+fUZ7b4I2MmLn6wx+9ovXOV78OV3/DV11XGcOYcEDorXCqypluk6F/13E5LWh0fOhohbrLETq+UPGZ4afVe+W2qwl4drirGR/BVh/NjrZQ8ZE17e7F6+x5fek1rfXNKK2nts1gZn9U272zw8GLK6q6oNOuTLw/uW5O7XLvYVlpHen64tfOlkVuPbX157Z1ZH9U272zW/+4sqJynP39pbT+Uuv7eKzpgai2exfTwVMc2Wqt0tX7kx7pr1z/SIuk3C4t4Cu38/FyH2bpuSBXkUrdptzyWgVsaVW82j6Vusql9bfeX229Z2yX4L1yG7zHgw/UAz6jPNfBA7ziPB4gQPAAAYIHCJgP3uhP9FZG+lvZD9hkPnhHjPyKdlZA+CUPNc0T6L3nhDximBNUqi1eqIxnTxuxoCd0O79/XGvLriZgXfMEurqreeQSD7kpQaVlwchwqNw6awOH6cIitVVXMzfFp/Q4nX2dey530Mm9Pi6nGKFDCV3NBQgXRm0fPNV0IaCmejqhNrPbu9wlHtJltSlDcdkQbIwyPzthtFLPXvdjVYi4/ghqtgve7LYCAoMzmQ8esKPtf1wBLCJ4gID54Fk/aQ8cYT54wI6+BC/XuoT5arQ8wDrPE+il0HF9RGC9Z4tHoIDrVL/jeWvt6BLDi64fV7yEzsv0JaDrmivWQ/d4cNdR+NI1EdaD0mRUwKLnWM3WXXXSZVc5cumHgBDCKvODpD21ukAvRq4AAuZbPGBHtHiAAMEDBMwHj3Nz2JH54PVgqBi8aU4LCs9brticboA3z+DVQscYSGCt6rSg9OQ1LQuwRvfsBA+tnZf9BJrB89TV9LKfQDN4dC+B9bY4nQB483Kxo/gHFW93C+JGIfDC/CBppgVhR3Q1AQHzLR6wI1o8QIDgAQIEDxAgeIAAwQMEpoPHuEhgHC0eIHD4PN6ZLR0jVbC76RPoDOkCxtHVBAQYMgYI0OIBAv8BsvunYFt/1osAAAAASUVORK5CYII=;" vertex="1" parent="1">
          <mxGeometry x="440" y="890" width="222" height="149" as="geometry" />
        </mxCell>
        <mxCell id="0QcBcMVcxcDUxxgfM1Hy-51" value="" style="shape=image;verticalLabelPosition=bottom;labelBackgroundColor=default;verticalAlign=top;aspect=fixed;imageAspect=0;image=data:image/png,iVBORw0KGgoAAAANSUhEUgAAAN4AAACUCAYAAAD8pJe9AAAGK0lEQVR4nO3dXXKcMBBGUdnlNSXZ/1PihTjZRfIklyKr9Q/dLe6pSlU8zACj4UMCJHj5+P3nbwBwq1ftFYBtP75/U/ns6cTg/fj+7fOfZzvX30N57P6+P3+9T3/+56938+Wl5U2aEAv87oLLl7fyw++Wb0jp/y2t51Wk7/u0cthBDJ6WuHGnwV/d614hX6/V9dxl1zq0vl/8u/W+0nvAMR6UPL0J+lnjjTYX4vulJkc6bWfzMV9u+ndtWunzreml5Za+w9179FY5j6576TO53d/36TXgWwjhS9OupdYUlAp0R0GXlhsDVNoYSgf3+WvSBlX7v7ROdyotUzqZIf1WM016mo17fDnG6ynU2g9c2oNKr8+Qdgw7j21G3qsVutHylNbVw/c90Zfg9RRurQZo1YQWTpbUDvhXN+S7XF2eu05yaZeTVS+x54p0fJRqHc/tOMZrvTdvJtaOTVvTWjVA7fuW3LWB9ZRzz7F37TNxWs/2MFvOTw7kC13GULMSkKeHq4bgAQq4jgcoIHiAAoIHKCB4gAKCByggeICCpeA9vYc5MIsaD1AwdQH9ypqOng54gqWeK3QJAubQ1AQU0FcTUECNByggeIACggcoIHiAAoIHKCB4gALTwRvtIWPloSJW1gN2mQ7ejJ5bE14dCnrzoKUavFMe1ZUiFLCg+ny8eIt0nnPGECjsdVxTE/DA3PPxZpUeJhJC/1OBeu62LM2z9rwImrYoOabGKz0pqPV3KTSlpnU+LX0tbZKnCB1qjgmeFsKFGUcHj+YerBKP8VpP4vGu9fTU2pOE0rIh2JhheiDs6Ea9+vDLXSHa9RBOnOuo4K0uKyIwuJrp4AGnOvrkCmAVwQMUmA4e/SNxKtPBG3XaSAqcqyt4XjZmzkbCi2bwvIQO8OSopibgRXMEupfmG8d38KQ5At0DaWgOYFXXPVfi/wHsUR2dEHmq/QAPus9qWq7x4jAdD+sKhNBxzxUvNZ2X9QRC4HICoIJhQYACajxAAcEDFBA8QAHBAxQQPEDBUvC4UA3MocYDFExdx7uypqMHCp5g6QI6naeBOTQ1AQV0GQMUUOMBCggeoIDgAQoIHqCA4AEKCB6gwG3w6CdqH7+RzGXwRnrM3P3jx7ud9S735Dtgx7u/4avmXcYwJu4Qejc4rY0zXyZd/+7lbljQaP/Q0Q3qKXvoWC7x1vdXfW9qvTKXTU3Au6mmZroH2703m62h0j1r3tzLb0ffer/0ntb8VkjzqS0zWlkfreU+3VTw0g1Vu6Dzpky6PqVmTnq793zd4zRpHvn80veulkVpPrX5l5Y1sz5ay326x55c2bFxXH38Is1fqn1D2NMC0VrukywFT2PPVquV7l6ffE9/5/xHaiTN5VIDlrkcj1f6MaXXotKGJDWbStNrG2BLa8OrrZPUVJbm3/p+tflesVyCV+YyeCHwg3rAbyRzGzzAM67jAQoIHqCA4AEKTAdv9BS9lZ7+VtYDdpkO3oyRs2hXBYQzeWipXkDvvSbkEd2coEms8eLGePWwEQt6Qnfy98f9jmtqAh5UL6BrNzVnbvFQGhIkTYtGukOV5lnrOEwTFiXHNDVLQ3ykv/PR16XXSjud0vvTckoROtTQ1FxEuDDj6OBpDRcCWsTLCbWR3d6VbvGQT6sNGUrLhmBjhunRCaMb9ep9P3aFiPuPoOWo4K0uKyIwuJrp4AGnOvrkCmAVwQMUmA6e9Yv2wCzTwQNO9Rm8Uu0Sx6tR8wB7vYUgh477IwLXeA2B61bA3cRjPG+1HU1ieNI8ueIldF6GLwEhdNxzxXroQuCpo/CnORDWA2kwKmDVy8fvP39bT9XJp91l5tYPESGEZaY7SXuqdYER9FwBFJiu8YBTUeMBCggeoMB08Lg2h1OZDl4PuorBo+qwoPi65Q2byw3w6DWEeujoAwnsJw4Lyi9eU7MA+3SNTvBQ23lZTyCERvA8NTW9rCcQQiN4NC+Ba7i/nAB49N/NjtITKt6eFsSDQuCJ6U7SDAvCqWhqAgpM13jAqajxAAUED1BA8AAFBA9QQPAABUvBo18kMIcaD1AwdR3vypqOnip4gqUL6HTpAubQ1AQU0GUMUECNByggeIACggco+Acb/q5AVPUrKAAAAABJRU5ErkJggg==;" vertex="1" parent="1">
          <mxGeometry x="440" y="1061" width="222" height="148" as="geometry" />
        </mxCell>
        <mxCell id="0QcBcMVcxcDUxxgfM1Hy-86" style="edgeStyle=orthogonalEdgeStyle;rounded=0;orthogonalLoop=1;jettySize=auto;html=1;entryX=1;entryY=0.5;entryDx=0;entryDy=0;fontFamily=Helvetica;fontSize=16;fontColor=#EA6B66;strokeColor=#9673a6;fillColor=#e1d5e7;" edge="1" parent="1" source="0QcBcMVcxcDUxxgfM1Hy-52" target="0QcBcMVcxcDUxxgfM1Hy-54">
          <mxGeometry relative="1" as="geometry" />
        </mxCell>
        <mxCell id="0QcBcMVcxcDUxxgfM1Hy-52" value="" style="whiteSpace=wrap;html=1;glass=0;fontFamily=Helvetica;fontSize=16;fillColor=#e1d5e7;strokeWidth=2;strokeColor=#9673a6;fillStyle=auto;perimeterSpacing=0;opacity=50;" vertex="1" parent="1">
          <mxGeometry x="470" y="920" width="80" height="30" as="geometry" />
        </mxCell>
        <mxCell id="0QcBcMVcxcDUxxgfM1Hy-87" style="edgeStyle=orthogonalEdgeStyle;rounded=0;orthogonalLoop=1;jettySize=auto;html=1;entryX=1;entryY=0.5;entryDx=0;entryDy=0;fontFamily=Helvetica;fontSize=16;fontColor=#EA6B66;strokeColor=#9673a6;fillColor=#e1d5e7;" edge="1" parent="1" source="0QcBcMVcxcDUxxgfM1Hy-53" target="0QcBcMVcxcDUxxgfM1Hy-55">
          <mxGeometry relative="1" as="geometry" />
        </mxCell>
        <mxCell id="0QcBcMVcxcDUxxgfM1Hy-53" value="" style="whiteSpace=wrap;html=1;glass=0;fontFamily=Helvetica;fontSize=16;fillColor=#e1d5e7;strokeWidth=2;strokeColor=#9673a6;fillStyle=auto;perimeterSpacing=0;opacity=50;" vertex="1" parent="1">
          <mxGeometry x="470" y="1091" width="80" height="30" as="geometry" />
        </mxCell>
        <mxCell id="0QcBcMVcxcDUxxgfM1Hy-54" value="" style="whiteSpace=wrap;html=1;glass=0;fontFamily=Helvetica;fontSize=16;fillColor=#e1d5e7;strokeWidth=2;strokeColor=#9673a6;fillStyle=auto;perimeterSpacing=0;opacity=50;" vertex="1" parent="1">
          <mxGeometry x="193.25" y="1078" width="80" height="30" as="geometry" />
        </mxCell>
        <mxCell id="0QcBcMVcxcDUxxgfM1Hy-55" value="" style="whiteSpace=wrap;html=1;glass=0;fontFamily=Helvetica;fontSize=16;fillColor=#e1d5e7;strokeWidth=2;strokeColor=#9673a6;fillStyle=auto;perimeterSpacing=0;opacity=50;" vertex="1" parent="1">
          <mxGeometry x="193.25" y="1137" width="80" height="30" as="geometry" />
        </mxCell>
        <mxCell id="0QcBcMVcxcDUxxgfM1Hy-56" value="" style="whiteSpace=wrap;html=1;glass=0;fontFamily=Helvetica;fontSize=16;fillColor=#f8cecc;strokeWidth=2;strokeColor=#b85450;fillStyle=auto;perimeterSpacing=0;opacity=50;" vertex="1" parent="1">
          <mxGeometry x="470" y="980" width="80" height="50" as="geometry" />
        </mxCell>
        <mxCell id="0QcBcMVcxcDUxxgfM1Hy-58" value="" style="whiteSpace=wrap;html=1;glass=0;fontFamily=Helvetica;fontSize=16;fillColor=#f8cecc;strokeWidth=2;strokeColor=#b85450;fillStyle=auto;perimeterSpacing=0;opacity=50;" vertex="1" parent="1">
          <mxGeometry x="470" y="1148" width="80" height="50" as="geometry" />
        </mxCell>
        <mxCell id="0QcBcMVcxcDUxxgfM1Hy-60" value="" style="shape=image;verticalLabelPosition=bottom;labelBackgroundColor=default;verticalAlign=top;aspect=fixed;imageAspect=0;image=data:image/png,iVBORw0KGgoAAAANSUhEUgAAAMEAAABbCAYAAADKv+G5AAADYElEQVR4nO3dS5KbMBSFYZzKmmzvf2R7IUl2kYzoohW9xePqnv+ryiBtGmihg2Qk4Pbr95+/CyDsx9U7AFyNEEAeIYA8QuDA83G/5He9yIbg+bh//cN+9izP5+O+vN6f7t9/vT/yx/dn7sO1cM8upHB7IwdZUSwY2zKlPL8z2R1aD9Lr/XF5ptqrEpYqe7hcqjw9lnELkyFAvz3P8irB+NYdam0y1+W3y6a6Mj1dnNj6W7ebW8+RSuVQOoPvuf/humrXo9Jt+grBtnBqzgDh8tsCSxVea6HG1t+63dzyR4ttK9X1SO3jnvt/9t8/i+gX45qCyh3M2Jkr9fNWrdtdlmua9Z6/N1VJ99h/ApAWDUFNgeVajtKZeuSAjGz3bHudwXMta+ux6vncu9t2Al145so127HPU1ceUsumlJZt2W64/FkHu6YcWr/ThD9fPystW3McS11Jz27MIp3fXi2rKkIAeYwTQB4hgDxCAHmEAPIIAeQRAsgbDoHKTEP4RUsAed2DZUe2AOojmDjX8Igxw+6YHd0hyGPuEOTREkAeIYA8QgB5hADyCAHkEQLIMx+C1pFpKw8QtrIfKDMfgh4tI9hHVVZG0eeRfSr1svh+mvGVT6eDHcX3E+SeZuxJy7NR4YvL7hDQotgdmkl4pt4+US/1dL3YMqvYk91S68w9f5Vulm2uWoKwsuX+H74IJPaz2Peh2PLbbuMWAZiDqxBchYo+N/choEuCkuKL+7xeIo318cPPcu8K2JYNIZub+ZtqWivY6ItA9qrQV7wiCn3chWB0Wysqrw7zIQCO5v6LMVBCCCDPfAiYr4OjmQ8BcLTqEHBGhldVISAA8IzuEOQVQzDTlADu60WPqjvLZrCdzkwQ0KLpHmPLoaDyo1dxFunKcgCW5f+b5oFaTVeHLFeutSWYYV9hS9U9xpZbgK1Z9hO2cIkU8phKDXm0BJBHCCDPfAi4yoOjmQ9BDaZLYETV3CHrlYxLoxiRHScIR4mtjxoDPVx0h4ARrp5AxwOv0MNVd4i3zqAH3SHIIwSQx3cCyCtOpZ6lQs2yn7CH7hDkMZUa8mgJII8QQB4hgDxCAHmEAPKGQ2D5PgOgBi0B5HWPExzZAjD6izMND5YxbRmzozsEeUybgDxaAsgjBJBHCCDvHyvCTgAM+NrHAAAAAElFTkSuQmCC;" vertex="1" parent="1">
          <mxGeometry x="720" y="999" width="193" height="91" as="geometry" />
        </mxCell>
        <mxCell id="0QcBcMVcxcDUxxgfM1Hy-59" value="" style="whiteSpace=wrap;html=1;glass=0;fontFamily=Helvetica;fontSize=16;fillColor=#f8cecc;strokeWidth=2;strokeColor=#b85450;fillStyle=auto;perimeterSpacing=0;opacity=50;" vertex="1" parent="1">
          <mxGeometry x="193.25" y="999" width="80" height="50" as="geometry" />
        </mxCell>
        <mxCell id="0QcBcMVcxcDUxxgfM1Hy-84" style="edgeStyle=orthogonalEdgeStyle;rounded=0;orthogonalLoop=1;jettySize=auto;html=1;fontFamily=Helvetica;fontSize=16;fontColor=#EA6B66;strokeColor=#EA6B66;exitX=0;exitY=0.5;exitDx=0;exitDy=0;" edge="1" parent="1" source="0QcBcMVcxcDUxxgfM1Hy-61" target="0QcBcMVcxcDUxxgfM1Hy-56">
          <mxGeometry relative="1" as="geometry" />
        </mxCell>
        <mxCell id="0QcBcMVcxcDUxxgfM1Hy-85" style="edgeStyle=orthogonalEdgeStyle;rounded=0;orthogonalLoop=1;jettySize=auto;html=1;entryX=1;entryY=0.5;entryDx=0;entryDy=0;fontFamily=Helvetica;fontSize=16;fontColor=#EA6B66;strokeColor=#EA6B66;exitX=0;exitY=0.5;exitDx=0;exitDy=0;" edge="1" parent="1" source="0QcBcMVcxcDUxxgfM1Hy-61" target="0QcBcMVcxcDUxxgfM1Hy-58">
          <mxGeometry relative="1" as="geometry" />
        </mxCell>
        <mxCell id="0QcBcMVcxcDUxxgfM1Hy-61" value="" style="whiteSpace=wrap;html=1;glass=0;fontFamily=Helvetica;fontSize=16;fillColor=#f8cecc;strokeWidth=2;strokeColor=#b85450;fillStyle=auto;perimeterSpacing=0;opacity=50;" vertex="1" parent="1">
          <mxGeometry x="750" y="1030" width="80" height="50" as="geometry" />
        </mxCell>
        <mxCell id="0QcBcMVcxcDUxxgfM1Hy-81" style="edgeStyle=orthogonalEdgeStyle;rounded=0;orthogonalLoop=1;jettySize=auto;html=1;entryX=1;entryY=0.5;entryDx=0;entryDy=0;fontFamily=Helvetica;fontSize=16;fontColor=#EA6B66;strokeColor=#EA6B66;" edge="1" parent="1" source="0QcBcMVcxcDUxxgfM1Hy-64" target="0QcBcMVcxcDUxxgfM1Hy-72">
          <mxGeometry relative="1" as="geometry">
            <Array as="points">
              <mxPoint x="710" y="721" />
              <mxPoint x="710" y="670" />
            </Array>
          </mxGeometry>
        </mxCell>
        <mxCell id="0QcBcMVcxcDUxxgfM1Hy-82" style="edgeStyle=orthogonalEdgeStyle;rounded=0;orthogonalLoop=1;jettySize=auto;html=1;entryX=1;entryY=0.5;entryDx=0;entryDy=0;fontFamily=Helvetica;fontSize=16;fontColor=#EA6B66;strokeColor=#EA6B66;" edge="1" parent="1" source="0QcBcMVcxcDUxxgfM1Hy-64" target="0QcBcMVcxcDUxxgfM1Hy-73">
          <mxGeometry relative="1" as="geometry">
            <Array as="points">
              <mxPoint x="710" y="721" />
              <mxPoint x="710" y="826" />
            </Array>
          </mxGeometry>
        </mxCell>
        <mxCell id="0QcBcMVcxcDUxxgfM1Hy-64" value="" style="shape=image;verticalLabelPosition=bottom;labelBackgroundColor=default;verticalAlign=top;aspect=fixed;imageAspect=0;image=data:image/png,iVBORw0KGgoAAAANSUhEUgAAAN4AAABDCAYAAADzn7sqAAADk0lEQVR4nO3dbW7jIBCA4abqOXKMNPf/leQgu3uL7S+yLJoZPowZsN9HqlQ5NsYRk8Ef4Muv33/+fgAY6tO7AsAZEXiAAwIPcDBt4N2/b03btGxnbRuWt5YLSC7X6/W/iyuP58urLm9xIy+tz/379l43/r92v9p2tWW2HAPO4zM0isfz9fF4vtx/2eMG3lqfuKF7HE84hlm+U8xnWFdTa3y5Rrlatkgzr/Q58BX+CQ0ibejS8rTxSJ+l5WgBJK1nNdj487SBly636qkt1+TKSa32Q4J9vDOe1C2Ku0xSsIW/kvVrSBnDCuS0u5xbXnJcJfXvdbw4ny/rQ61BSVkn6NkAw356Z4megZIrZ4/6Y31m4FnnK9oVxK2NzGqovQIxdx5WQ+sqSxkWCLK3E6SAKznHk5ZLjU9abnUxc+vX1CfdRlpXy/g15ROESF1mfUiaBoojmzbwgCOb9pEx4MgIPMABgQc42BR43DQG2pDxAAfmDfSepJvKMW4d4EyGZLwQdNJN5VWedZy9flgLXU3AwfCupjZ0Z6/hSFI9tDJy+60ZXgRYds940qNf6UPVo4cjaSPctXJahhcBlmEZr4bncKSacgg4tBoWePFwmdwD0B7DkVrK6Tm8COeye+ClWSo915MymNYFtKZT6DGrV66ctK5aPYGcTaMTaGhAmynP8XpgsiHMjPF4gANuoAMOCDzAAcOCAAdkPMCB61VN3qiDs3ILPCZ9xZnR1QQcEHiAAwIPcEDgAQ4IPMCB21XNXkN5gBW53scj2HBWdDUBBwwLAhyQ8QAHBB7gYOrAY9gRjmrqwDuT0T8y9+/b+28ms9VnL+bthJXus83+NqLSqetH0eYD1SYSRl9qxounJ599xuQV3kYkNd4tE/LudTzadPW9nX0WOLqaG2kNyDvQe2CM5H4OM6+m19uItIZZOkV9ri7WMWnr9HirkdYF1fYVWO+0sOqfq6O2rrbf2S2f8WZ8G1Etqxsa7zv9LF5udVtb6p/7TrW6aN+zVJZ2XCmp/rOdStQ6TMar4fU2opYG0uOXvLVh9swiq2WkvS2f8QLphSga7Zc4lFOaCbfUdSTreEfWAf+Yz2p6304oPbm33kYU5DJYbhvtu9DqWLPcOg+S6p6rj3QMpS/srNmvtX3pObZWx9w5ebqu9+2ZWlM/JM1VNRzVYbqawEqmznjAUZHxAAcEHuCAwAMcEHiAAwIPcEDgAQ5+AErcdUtReCdRAAAAAElFTkSuQmCC;" vertex="1" parent="1">
          <mxGeometry x="720" y="687" width="222" height="67" as="geometry" />
        </mxCell>
        <mxCell id="0QcBcMVcxcDUxxgfM1Hy-67" value="&lt;font color=&quot;#ea6b66&quot;&gt;继承后重写&lt;/font&gt;" style="text;html=1;align=center;verticalAlign=middle;resizable=0;points=[];autosize=1;strokeColor=none;fillColor=none;fontSize=16;fontFamily=Helvetica;fontColor=#000000;" vertex="1" parent="1">
          <mxGeometry x="620" y="705.5" width="100" height="30" as="geometry" />
        </mxCell>
        <mxCell id="0QcBcMVcxcDUxxgfM1Hy-71" value="&lt;font color=&quot;#ea6b66&quot;&gt;继承后重写&lt;/font&gt;" style="text;html=1;align=center;verticalAlign=middle;resizable=0;points=[];autosize=1;strokeColor=none;fillColor=none;fontSize=16;fontFamily=Helvetica;fontColor=#000000;" vertex="1" parent="1">
          <mxGeometry x="380" y="690" width="100" height="30" as="geometry" />
        </mxCell>
        <mxCell id="0QcBcMVcxcDUxxgfM1Hy-79" style="edgeStyle=orthogonalEdgeStyle;rounded=0;orthogonalLoop=1;jettySize=auto;html=1;fontFamily=Helvetica;fontSize=16;fontColor=#EA6B66;strokeColor=#EA6B66;entryX=1;entryY=0.25;entryDx=0;entryDy=0;" edge="1" parent="1" source="0QcBcMVcxcDUxxgfM1Hy-72" target="0QcBcMVcxcDUxxgfM1Hy-77">
          <mxGeometry relative="1" as="geometry">
            <mxPoint x="380" y="710" as="targetPoint" />
            <Array as="points">
              <mxPoint x="420" y="670" />
              <mxPoint x="420" y="693" />
            </Array>
          </mxGeometry>
        </mxCell>
        <mxCell id="0QcBcMVcxcDUxxgfM1Hy-72" value="" style="whiteSpace=wrap;html=1;glass=0;fontFamily=Helvetica;fontSize=16;fillColor=#f8cecc;strokeWidth=2;strokeColor=#b85450;fillStyle=auto;perimeterSpacing=0;opacity=50;" vertex="1" parent="1">
          <mxGeometry x="440" y="645" width="220" height="50" as="geometry" />
        </mxCell>
        <mxCell id="0QcBcMVcxcDUxxgfM1Hy-78" style="edgeStyle=orthogonalEdgeStyle;rounded=0;orthogonalLoop=1;jettySize=auto;html=1;entryX=1;entryY=0.75;entryDx=0;entryDy=0;fontFamily=Helvetica;fontSize=16;fontColor=#EA6B66;strokeColor=#EA6B66;" edge="1" parent="1" source="0QcBcMVcxcDUxxgfM1Hy-73" target="0QcBcMVcxcDUxxgfM1Hy-77">
          <mxGeometry relative="1" as="geometry">
            <Array as="points">
              <mxPoint x="420" y="826" />
              <mxPoint x="420" y="718" />
            </Array>
          </mxGeometry>
        </mxCell>
        <mxCell id="0QcBcMVcxcDUxxgfM1Hy-73" value="" style="whiteSpace=wrap;html=1;glass=0;fontFamily=Helvetica;fontSize=16;fillColor=#f8cecc;strokeWidth=2;strokeColor=#b85450;fillStyle=auto;perimeterSpacing=0;opacity=50;" vertex="1" parent="1">
          <mxGeometry x="440" y="801" width="220" height="50" as="geometry" />
        </mxCell>
        <mxCell id="0QcBcMVcxcDUxxgfM1Hy-77" value="" style="whiteSpace=wrap;html=1;glass=0;fontFamily=Helvetica;fontSize=16;fillColor=#f8cecc;strokeWidth=2;strokeColor=#b85450;fillStyle=auto;perimeterSpacing=0;opacity=50;" vertex="1" parent="1">
          <mxGeometry x="160" y="680" width="220" height="50" as="geometry" />
        </mxCell>
        <mxCell id="0QcBcMVcxcDUxxgfM1Hy-83" value="" style="whiteSpace=wrap;html=1;glass=0;fontFamily=Helvetica;fontSize=16;fillColor=#d5e8d4;strokeWidth=2;strokeColor=#82b366;fillStyle=auto;perimeterSpacing=0;opacity=50;" vertex="1" parent="1">
          <mxGeometry x="193.25" y="940" width="80" height="30" as="geometry" />
        </mxCell>
        <mxCell id="0QcBcMVcxcDUxxgfM1Hy-88" value="" style="shape=image;verticalLabelPosition=bottom;labelBackgroundColor=default;verticalAlign=top;aspect=fixed;imageAspect=0;image=data:image/png,iVBORw0KGgoAAAANSUhEUgAAAN4AAABXCAYAAABr2PunAAADYklEQVR4nO3dS3KcMBQFUDmVNdne/8j2QpLsIhnhIhiJn+gnyedUZRC3DBi4rdeNQE+/fv/5m4CH+hG9AfAdCV7nXl+eQ36Xa7LBe315/vxHPTX35+vLc3p7/zj9+2/vH45vkJ+5F6YD+ugDs1zflRPrO1oL43yf2p9taK7UnE6Mt/ePId+Ra534WwFbtsvtzxH3cQ+aCx7n1ezNhPFen6Xm0XJkaj9vmysTz5SPa8s/ut7Scu60tR+2eqqa279c1t7lKEnv9TOl/w/Inne6Zfv5QcodsKMHcm35R9dban+3tXXlyrrcNtbc/kf//ZR9+XJlz8EpnUBr79C5nx91dL0pxZRMZ/7eXDBqbL/QtedL8PYcpFIPudUjXTkJrqz30Wr1VKUK4uixOvM693iahowt36FLJdHa67lvzHJtc7baHlnvsv2jTrA9++HoZ9Tlz6fXttruOY5bZTr1PRmr2bdaFQSPJXgQwHU8CCB4EEDwIIDgQQDBgwCCBwEuBc8IdjhHjwcBTl1Av7OnM5KC7+DSyBVDjuAcpSYEMFYTAujxIIDgQQDBgwCCBwEEDwIIHgRoOnhHR8i0MslKK9tBu5oO3hlHRtLcFRCjediSnS0opbFnmYl8yjQU58crzTIzkiNzOUANw5Wa0INiqdmTZY80fzJ27inZa20ma09ozi2zNF+EEpY1w/R4yxO89P/l5JdrP1v7fLvWfl6SzwkdJcMEL4pwccbQwVPu0arsZ7xcuTWCtc9sy9dKc9XN941gc0bTN8IePamvTn5ZK0QR0z/Tl6GCd3VdE4Hhbk0HD0Y19Jcr0CrBgwBNB8/4SEbVdPBgVLuCp+eBujaDJ3RQn1ITAhSD19NwKM85oSebd6D3YH5rjvDRg93PXGk5iAJHb4p3J0xaDl1KXx9cBK3b/a1myyf01OP1sK2Q0o5nrrTc0831sp2QkssJEMJtQRBAjwcBBA8CNB08304yqqaDt4ehYvRoc6xm6ye2ywj0KHsdbzlapfXRK9CT7ktN6NEwT5L2EFl6MkypaXZXeqLUhACCBwF8xoMAxduCejmJe9lOmCg1IYDbgiCAHg8CCB4EEDwIIHgQQPAgwKXgtXyfHrRMjwcBTl3Hu7OnMwqF7+DSBXS34MA5Sk0IYMgYBNDjQYB/xgZN+JEBnOwAAAAASUVORK5CYII=;" vertex="1" parent="1">
          <mxGeometry x="741" y="1750" width="222" height="87" as="geometry" />
        </mxCell>
        <mxCell id="0QcBcMVcxcDUxxgfM1Hy-89" value="" style="shape=image;verticalLabelPosition=bottom;labelBackgroundColor=default;verticalAlign=top;aspect=fixed;imageAspect=0;image=data:image/png,iVBORw0KGgoAAAANSUhEUgAAAN4AAABDCAYAAADzn7sqAAADlUlEQVR4nO3dbW7jIBCAYafqmZLc/1eSg7S9RfdHRcuiGb6MGQzvI1XadWxnHDEZHBt8+fj8+t4AdPVmHQCwIhIPMEDiAQZIPMDA0Il3v12rtqnZLratW167XyB0+fj8+g4b1OP5Mgrnjx9Tbjz32/V3Xf/fpe+rbVe6z5pjwBretu2vUTyer+3xfJl/s/sNvDYev6FbHI87hlE+U4yla1dTa3ypRnm2ahFWXul1rO3d/49rEGFDl5bHuqfafrQEktaLNVj/9bCB5y6Pxakt16T2EzrbFwna+6/iSd0iv8skJZv7y1m/hFQxYokcdpdTy3OOKyf+VseLtbynVtAalFR1nJYN0L1P6yrRMlFS+zkifpxbMvFi5yvaL4h7G1msobZKxNR5WAmtqyxVWGDbMi8nSK/nnONJy6XGJy2PdTFT65fEE24jratV/JL9k4TwXUYenUADxayGTjxgVkPfMgbMisQDDJB4gIHdicdFY6AcFQ8wkLyA3pJ0UdnHpQOsolvFc0knXVQ+y72Oo8eH86CrCRgw6WpqQ3eOGo4kxaHtI/W+JcOLAE2Xiifd+hXeVN17OJI2wl3bT83wIkDTteKVsByOVLIfEg41uiaeP1wmdQO0xXCkmv20HF6EdXRJvLBKhed6UgXTuoCx6RRazOqV2k8YqxYnELN7dAINDSg37DleC0w2hFExHg8wwAV0wACJBxhgWBBggIoHGDD/VZMn6mBFponHpK9YFV1NwACJBxgg8QADJB5ggMQDDJj+qtlqKA9wNubX8Ug2rIiuJmCAYUGAASoeYIDEAwwMn3gMO8KMhk+8lfT+krnfrr9/IxktniMkLyec6Trb6E8jyp26vhdtPlBtImG0E614/vTko8+YfIanEUmNd8+EvEcdjzZdfWsrzwJHV7MBrQFZJ3oLjJE8hvmdKy1ZPY1Ia5i5U9SnYokdk7ZOi6caaV1Q7b2c2DMtYvGnYtTW1d53ZFNUvBGfRlQq1g313zt8zV8e67bWxJ/6TLVYtM9Z2pd2XCEp/tFOJUpMVfFKWD2NqKaBtPgmr22YLavImSrS0aaoeI70QBSN9k3s9pNbCffE2lPseHvGgB/JezWtLyfkntzHnkbkpCpYahvts9BiLFkeOw+SYk/FIx1D7gM7S943tn3uObYWY+qcPFzX+vJMieFvkuZXNcxoqq4mcBbDVzxgRlQ8wACJBxgg8QADJB5ggMQDDPwDkyN7S2y84mUAAAAASUVORK5CYII=;" vertex="1" parent="1">
          <mxGeometry x="742" y="1491" width="222" height="67" as="geometry" />
        </mxCell>
        <mxCell id="0QcBcMVcxcDUxxgfM1Hy-90" value="" style="shape=image;verticalLabelPosition=bottom;labelBackgroundColor=default;verticalAlign=top;aspect=fixed;imageAspect=0;image=data:image/png,iVBORw0KGgoAAAANSUhEUgAAAN4AAACCCAYAAAApK3Y7AAAFVElEQVR4nO3dbXKbMBSFYSWTNSXd/68kC2m7i/ZHhoys6AsQnHul95npTGNjG2QOEkZCT7///P0XANzqWb0CsO3X26vktbMrBu/X2+v3P89Grr+H8hi9ve8fn4df//7xab68VIrBe//4PFXoR8WBt/al5crD2jperbS9Fr8vy8w1Nbedewv+2S/zyoOHxR1t1Pbmarta6ErfF7VenrngeaJoESiVavz48d4yWT2ML9t/4oLoKbxt+XjZ3NGu9vgR6efGf9eey72+9Xzucy1olXNr3Xu29+g69b7Paget1EsIj0etnh0sXb7niDeioHOfuwUo1zTqafqkO2Fuu/aWzx1y5Vlq1pW+q9r3uMeo91nJS/pAT6HVvuDcka/0+BGlHX/kuY11R8qzFIgR20vQ9vsRvJ4jVq0GaNWEI36iPmvbcUu1hgdXl2etjPagBsx72nqulM6PYq3zuRHneK1l02Zi7dy09VyrBtizvXfuXD3l3HPuXXvN9lzPskfLeeVAPtFlDDWjzv3wiOABAlzHAwQIHiBA8AABggcIEDxAgOABAqeC56F7FWARNR4gcOgC+pU1HT0dsIJTPVfoEgQcQ1MTEKCvJiBAjQcIEDxAgOABAgQPECB4gADBAwRMB89TX1BP6zoLz2VuOnhepLc7tLRDWJ0AZgTP8zL8uK9mTHX7Os+s7QyqO2CPvG3/jKrz4223SLe2M5Uo1pH+qnmjZ32qfY6HfTNFUxMQqDY1vYiPeKOPfmdu5pp7/Z5Zlmrv0/rc3tdcPeuTqhysmyJ4Fmeq6Zl1qDXL0t5ZeCzO+qQoBw+mCJ4Xe2dZCuF4DW551qc7y8GqqYKnOBLumVXnzCxLe1me9WlkOXitAavj8dSXE7wUau+sOulz2/NHZ/MprUu8rIdZn1qfmy6fPu5hH0mZHgjrqVA9ressPJc5lxMG8boDeOa5zE3XeMCsqPEAAYIHCJgO3t5rN0eWt3B9yMp64D6mg3eHPSfoVwXE848EOIZhQZ1m7LYEnamGBd1lz4VsIGf5piagMFVfzT3SGinualXqdpVbZpPr3lR6z1oHZJqwa1i2xkt38Nrf6Wjq3GO58+Hc8nETPkbo1rJs8FQIF0IgeA9o7uEuxXO8UvNpRblztvS50sjp7bn4PVYuS3yp/riywg7SM+CyVg69t0jYM3YN81v2V80Qzh1YRtZgKxzg8IhhQYAAP64AAgQPEDAdvKuHBQEqpoMHzKoreNQkwFjN4BE6YDyamoBANXgzd2/iPidQao5An1E8NIfwQaH7niszBZHAQa06OmEzU+hC2D+PHDBa96+aM+2gW40347bBh+bohJlqutis2wUfuJwACDAsCBCgxgMECB4gYDp4DAvCrEwH7wp0FYMFzb6as+2oXEaABcXreGlvldl6rwBKyzU1AQuWvZN07Q7QwNWWbWoyuyuUaGoCAgQPEOAcb7Ltgg9LzhY063bBD5qagADDggABajxAgOABAqeCN1PnaeBO1HiAAMEDBG4NHk1T4As1HiDQvKHtCOkcDCPRCwUe3RI8huAAj2hqAgK3Bo/aDvhCjQcIEDxAgOABAgwLAgSo8QABggcImA4efTsxK9PBA2b1Hbxc7TLjbEGABS8hlEM38y3cAaXnEOjKBdyteifpjYfabua7XmM+zR9XvITu/ePT/HoCm+ZUzN52Zm/rizUVg+cxdCFw7Q8+PPyqmfslM2Y1iPHMRlbXEYiZ7iTttdYFWui5AgiYrvGAWVHjAQIEDxAgeIAAwQMECB4gwMSUgAA1HiBw6DrelTUdPVWwglMX0OnSBRxDUxMQoMsYIPAfX3Lv5FcmMSMAAAAASUVORK5CYII=;" vertex="1" parent="1">
          <mxGeometry x="479" y="1642" width="222" height="130" as="geometry" />
        </mxCell>
        <mxCell id="0QcBcMVcxcDUxxgfM1Hy-91" value="" style="shape=image;verticalLabelPosition=bottom;labelBackgroundColor=default;verticalAlign=top;aspect=fixed;imageAspect=0;image=data:image/png,iVBORw0KGgoAAAANSUhEUgAAAN4AAABDCAYAAADzn7sqAAADvElEQVR4nO3dW3akIBCAYbvPrCnJ/p+6eyFJdpF58oRhqOIiUgX+31uMIiol2IjcPr++fzYAQ92tMwBcEYEHGDgl8D7e37qm1TO9OO2WbVrzI227Lz/rOOHPfdv+vfDeLv7j+fpvWY887mnUpPXx/rY9nq/t8Xw15SF1LPty6X+5/Hi8Zsi7b9tvgThSqEIthahUr6ALj/loEFkU/PAm0OOaYazpnvG0oJYKX65QnnmjOEN445CarvDtT8lK+4WML3Z4p039L7V97v+p/ZbSmnLx31qB1Y6rdLm0TFsuqT0/s91Irihb46Wea8JCFz+fpC56quBr6Utp95SqMbR8xs3x3HLtebCmeXj0uRI+VdV4sV5BYVmg9gLdO8B7BkounTPyj3MVBV6Pi6oV8NGFRiuovQIx9xxWQ2oqp2pYzOH2+fX9k2oKheLmmNY8y/0v1z2g/VpYsm8p/aP51M7R0fynArM2fYJwLrcrv6tJAYWVSwceYGW6fjxgBQQeYIDAAwwcDjw6dYF6S9V4swxHAoYGXlyQrzgcCdi2gYG395mlOn2vMhzJwz7gw1JNzTPR0Y6eit7V7CWu9XKFeZbhSFK+dyXDglqGF2FeQ2q81KtZJUE383AkaYS7tN+W4UWY19Aar9aqw5Fq9kvArWlo4IXDWUpeUF5tOFLLfnsOL4Ifh1+SLn3DP37ekkZmp7YJtytdtySPvYYjpdLVbjItw3zi/GBuwwIPwC/Xz3je8bEhtGI8HmCADnTAAIEHGGBYEGCAGg8wYP6rZk3/GLAK08Djo6y4KpqagAECDzBA4AEGCDzAAIEHGDD9VbN2uA2wCvN+PIINV0RTEzDAsCDAADUeYIDAAwy4DzyGHWFF7gPPk9lnI7LYn8cJaTzkJ9udMFM/m/YZvW3zlf/U5w2Pjs4o+az9SNL3QFMF39O1GUGt8cLPh3v/ojGzEeU/Y1+b/7Out/S5+t48fwWOpqYTWmGQCpDnG2Gpq47BNH9zpadVZyOSjiMXrLm8lByvtE6PWY2kJqi0r13JV8Sl2Ze0PErrSvs9Yoka74qzEdXS8q8db7hcOx8tsxpp50/LS8n5lJqz0nnXysMZj1pL1Xi1VpyNqKWA9JwcpmW7XmZqsi4VeNpEIdL6Pfd5RvqtRu/bw6xGMz0vZt/VtO5OYDYiPf3S5dpzUGqftflPLU/JHWsundLnbyn/JddYWrdn94z7l6RnuosBpZb4cQWYjfsaD1gRNR5ggMADDBB4gAECDzBA4AEGCDzAAIEHGPgLI7rZmXOdljAAAAAASUVORK5CYII=;" vertex="1" parent="1">
          <mxGeometry x="480" y="1460" width="222" height="67" as="geometry" />
        </mxCell>
        <mxCell id="0QcBcMVcxcDUxxgfM1Hy-92" value="" style="shape=image;verticalLabelPosition=bottom;labelBackgroundColor=default;verticalAlign=top;aspect=fixed;imageAspect=0;image=data:image/png,iVBORw0KGgoAAAANSUhEUgAAAN4AAACDCAYAAADid6WeAAAFV0lEQVR4nO3d23LbIBSFYaXTZ0r6/ld2HqTtW7RXcgjDUUJam83/zXSm8VHGLIEsEG+///z9twG41Q/1BsC+Xx/vkud6Vgzer4/317+Zjdz+Gcpj9Od9PD8PP//x/DRfXgo/S3fuBX53wcXvd+aLHy2uSOH/LW3nlXJh3MtilXI4w2RXc//iHs/PIXvMqyrCXgFHbecooz5vKmC5zxiWRWrHaaVsrDAZPNiVa+nC21uDv3IYv3U1e7tNqa5Frps4svsYv2/4d+m+1PNr96feN/UZzh4L9aqVc++2p55zdJtaX2flLukreGHFadkTxY9v2eONKOjU++4BSlX+lq5PLkCl/+e26U6p98x163LfVel77DHqdVaR/HGlpdBKX3Bqz5e7/YjcjmHksU3PY1Wh6y3P2o8iZ7cH7ZLBa6lMpRag1hKO+In6rL3i5lqNFuo9+9XlWSqjHupysugtHLmSOz4K1Y7nRhzj1R4bdxNLx6a1+2otQOnzptxVwVrKueXYu/Sc/b6Wxx4t51UD+caQMdSMOvbDF4IHCHAeDxAgeIAAwQMECB4gQPAAAYIHCJwO3sojzIGjaPEAgcMn0K9s6RjpAO9Oj1xhSBDQj64mIMBYTUCAFg8QIHiAAMEDBAgeIEDwAAGCBwiYD95MY0Fn2lYvZi1z88GbRXy5Q0sVwsuqTymzrstQXC1o29ZcDecsa5WBVZ/sqa6PZ3E1nBLFNjJeNW30qk+l95mhboboagIC1a7mLHKLRY5w5mKuqef3rLJUep3a+7Y+5+pVn1TlYJmb4FlcqaZl1aHaKku9q/BYXPVJUQ7WuQneLHpXWdq24y245VWf7iwHi9wFT7lkVmu36+gqS70sr/o0shxmbAGr8/HUpxNmKdTWVXXi+/b7j67mk9uW8LEzrPpUe9/48fHtM9SRkPmJsDMV6kzb6sWsZc7phIFmrACzm7XMzbd4gEe0eIAAwQMEzAev99zNkcdbOD9kZTtwD/PBu0PPAfpVAZn1RwIcw7SgDt6GLUHH3bSgu/ScyAZidDUBAXdjNXvELVI41Co37Cr1mF1qeFPuNUsDkOnC+rd0ixdX8NLf8Wzq1G2p4+HU48MufIjQrWPp4KkQLhC8CN093KF4jJfrPq0odcwW35ebOb3fF77GymWJhh9XVqggLRMuS+XQeomEnrlr8G3pXzW37dyOZWQLtsIODl+YFgQI8OMKIEDwAAHzwbt6WhCgYD54gEfNwaMlAcZpCh6hA8aiqwkIVIPneXgT1zmBStMMdI/CqTmED3fruuaKpyASOChVZyfsPIVu2/rXkQNG6vpV01MF3Vs8j58N9jXNTvDU0oW8fi7Yx+kEQIBpQYAALR4gQPAAAfPBY1oQPDIfvCswVAxqTWM1vVVUTiNArXgeLx6t4m30CqCyZFcTUFv6StKlK0ADV1q6q8nqrlChqwkIEDxAgGO8zd/ngn3Lrhbk9XNhDnQ1AQGmBQECtHiAAMEDBE4Hz9PgaeAutHiAAMEDBG4PHl1TgBYPkGi6oO0I8RoMIzEKBbO5LXhMwQG+0NUEBG4PHq0dQIsHSBA8QIDgAQJMCwIEaPEAAYIHCJgPHmM74ZH54PXytsAKfPoWvFSFnW21IE7QYwavsZq50Hm+hDug8mrxCBRwn+qVpHcztHazdIeBph9XZgnd4/lpfjuBbWtcipnKDIxVDB6hA67xGquZWhUodcx0dxB7wh9vLzsNWGV+kDStLjxyN3IFmIH5Fg/wiBYPECB4gADBAwQIHiBA8AABFqYEBGjxAIHD5/GubOkYqQLvTp9AZ0gX0I+uJiDAkDFAgBYPEPgPyzQIb1IXC18AAAAASUVORK5CYII=;" vertex="1" parent="1">
          <mxGeometry x="479" y="1812" width="222" height="131" as="geometry" />
        </mxCell>
        <mxCell id="0QcBcMVcxcDUxxgfM1Hy-93" value="" style="shape=image;verticalLabelPosition=bottom;labelBackgroundColor=default;verticalAlign=top;aspect=fixed;imageAspect=0;image=data:image/png,iVBORw0KGgoAAAANSUhEUgAAAN4AAAA8CAYAAAAJ6wQ+AAADoElEQVR4nO2dW3LrIAxAnU7X1Hb/X0kW0nYXvV9MKRcJYWOLxzlfGRuEsCULTGRun1/fPxsAXMqLtwIAK3KK4328vzWV1VJeKntPnb36SHXD8bP6Cf3xum3/G+D98XRRJsf98fyjX/z7iJ5Bzsf7m1lOXLamXiDtS3w81slKq2sB1/Oybb837f54isZRw1lGEIz9qJ6x0+yVE/fRI1K1uhbgw1RzPMn4SkY5WrRII2/uPPTNq6VQuJHpzY6ftLlzufql87l2A2mdtLzkQLlymsFq/bIet/SrZoiryUkZ7UGyIsWIFw9pckYXzgVyN11zkJx8SXZ67gi5iKHpmQ7HS8elfsVlLZFJkwPjUhXxUlo9WWsMqoXTxQSDbh0lWjpKSc4Z+sO5mByvxU3VDHzPW8UjaHJaOWJpHlaDNFQuDb2hX26fX98/peWEdDimDc9K56ShY66OxWAtxpc7Xqtnab5p0V+6dtoSg1U+TjgWt5X/MoaBghdLOx6AF1Ot4wGMAo4H4ACOB+DAYcdjURegnqki3ijpSACmBfRW5BZ9Y3p6tX9WOhLAtl0Y8YLT5Qx4lXQkSzuwBlMNNQFGwWWoaU2LGSUdSdI7V7+ka42eMC6XRLya3Lm0zqjpSPEwWpKvDbtL5WFsLo14tcyajlTTLg43J5c6XpzOYjHk2dKRattN28YB5+Hwn6StRpnOt6TM7FyduJ61rEXHVulIObnaQ2ZPmo+1bRiDyxwPAH7peo7XO3xsCPZCPh6AAyygAziA4wE4QFoQgANEPAAH3N9qkm4DK+LqeHyUFVaFoSaAAzgegAM4HoADOB6AAzgegAOubzVLqT4As+K+joezwYow1ARwgLQgAAeIeAAO4HgADnTveKQdwYx073g9MfpuRB7t9bjrUg/6FJcTRlpnW303Istn7a9E+h5ozvB7ujdXoEa8q3bJaQG7EZU/Y1+r/1n3W/pcfWt6/gocQ80BkAyo5wehlVVzMN3/udKSWXcjkvph+Zq1poulv1KZFrsaSUNQqa2A5Svi0u5Lmo5SWandI0wR8VbcjagWTX+tv/Fx7Xrs2dVIu36aLpbrKQ1npeur2cMZU62pIl4tM+5GtMdAvNpt1fYZss5mKsfTNgqRyrdsc6/8MyLd1UbYw65GI80Xi//V9F5OYDciXb71uDYPStur1b/G4UrXuSTHOv+W9LfcY6lsy+WZ7v8kPdJTDMDKFC9XAEaj+4gHMCNEPAAH/gG6rBdOyM1cUQAAAABJRU5ErkJggg==;" vertex="1" parent="1">
          <mxGeometry x="480" y="1540" width="222" height="60" as="geometry" />
        </mxCell>
        <mxCell id="0QcBcMVcxcDUxxgfM1Hy-94" value="" style="shape=image;verticalLabelPosition=bottom;labelBackgroundColor=default;verticalAlign=top;aspect=fixed;imageAspect=0;image=data:image/png,iVBORw0KGgoAAAANSUhEUgAAAN4AAAEvCAYAAAAq3n+/AAAL3UlEQVR4nO3dUXKkOBYFULqi1tQ9+/+qqoXMzC5mvrAxFiBA8B7inIiO6HKmnaTgppSgh/7693/++78BuNWP6A2ANxI8CCB4EEDw2PSvf/4O+d2erQbvX//8/fHfk7Xc/ie0R+v3++v3n8O//+v3n/TtFeHn2oNjg9/dcPPXO7PjW5sfSNP/z7SdV1l7v+Njb2iHs1IONccd9+v3nyafmFcdCGNv0Go7W2n1fue93dr7nT5W+uDM0jZZpAzeU7ztk33p/c4DWtsubw7jl6Hm3mFTaWixNExsOXycv+7032uPlX5/6/HS625tzx222nlr22ve79Zrnx1qvu2Da+ojeNNPrZpPovnzaz7xWjR06XXHAJVOBNQMfUrDqa3/L72vsyci9iq91tKwbmkb1/bj1uvWtBVlxZMrtY2/tINLn3xLPz9i6YOh5Xeb7I6051IgWrxfQdunGLyaT6wjPUCrT8QWO3k8cJd6jRrRn+xXt+e8jY6+TnQ7ZfTXdJL00vejqa3vcy2+4209dz5MrDnFvfTYVg+w5/1m+o43356a73jzn4+P1Tz3aDu/NZB/qU5gy5mAvDlcawQPAriOBwEEDwIIHgQQPAggeBBA8CDA6eA9YXoVZKPHgwCHL6Bf2dOZ6UDvTs9cMSUI9jPUhADmakIAPR4EEDwIIHgQQPAggOBBAMGDAOmD96S5oE/aVupctU/TB+8p5rfByxRCqz6V/1bN37tq3YfN4PWy0+6UbQrdeLftu02PnWzHz1U39q21uT5extVw1kRso/mqZWObtDp+rmzjtW274tg31ITh/lHK6sKUTzJfq62lMzdzLf3+nlWW1v7O1uvW/o5Vn+7XTfAyrlSzd1Wdrducn13Toub5b1716U7dBO8p9q6yNAzHDxCrPsX3bEu6C15Eb7e28tDcmVWW9rLqU7sAtz6uNuvxolbDmb5+lqHjmtpVdeaPjY8fXc1naVumz7Xq07lVn0KCF+0pwRuGZ20rda7apy4nNCR0/blqn6bv8aBHejwIIHgQIH3w9l6LyXztZu5J29qLLG2ePni9UkYUI8tk/80L6NHX8d4gy8EwippS1XIeaHbdlQXtpYwoj9ZlRGuvE30sG2pCgO7matZSRvT979f+ztVlRFHtcKfXBk8ZUfn5W+4oI4poh7u9NnhPoYzo2OsOQ55LByWvD54yovJrXbE9Z3qelu2QoQdcDd5WuQRtbfUY43PWzsrt3WelHqP0/Xd6xnHP9uzpdcbnRrTD3dJPkt776ZTh06zWk7a1F1na3OWEQBkOgLfJ0ubpezzokR4PAggeBEgfvKvLgo48P8P1oSzbwTHpg5fR3rOsVwQky0kCjlEWdKHs05aI8/qyoLvsmRxM/ww1IcDr52ruMe+RplOblqZdlZ4zKpWwLP3NtWlUhrDPo8fbYX6Ar/17Xk1d+lnp+3Pp+dMh/5TQPZfgPYBw9UfwTjLc4whlQRdZK3FZKwwtfa8T7P5snlyxw7+rKbhca7faWySs/Q2XHp7NWc2dznwQtezBfCA+m7IgCODkCgQQPAiQPnjZyoKghfTBgx5VB0/PAO1UBU/ooC1DTQiwGTzTlT65zwmtVFWg87U0R/g4a9c9V94cRIGjpc3qhNGbQzcM+9eRgzW7zmq++YAbezxtQQtV1Qlv7ummtAOtuJwAAZQFQQA9HgQQPAiQPnjKguhR+uBlYKoYrVXN1Xz7gecyAq2tXsebz1Z5++wVaMVQEwK4k/QOa3eAhj0MNXewuiutGGpCAMGDAL7j7eA7Hq1YLaiSdqAlQ00IoCwIAujxIIDgQYDTwVOGA/vp8SCA4EGA9MEzNKVH6YMHPaq6oW2E+ZoNLZmFQrS0wVOCQ88MNSFA+uDp7ehR+uBBjwQPAggeBFAWBAH0eBBA8CBA+uApO6JH6YMHPfoSvFJvYbUgaO9jruZS6NzCHdr76PEECu6zeSfpUY+9nbtkE6Xq5Eqvofv1+09374tnqFqKufeDs/f3Rz6rwXtD6IbBtT/u9+2sZulM5lQvQZyuhNTLe+I5PoJXOvh6PyB7f3/kZeYKBFAWBAH0eBBA8CDA7asFAXo8CCF4EOD24Bmagh4PQty2aInVf+DTbcGz+g98MtSEALcHT28HejwIIXgQQPAggLIgCKDHgwCCBwHSB+9JczuftK3UuWqfpg/eU0xn5GRb5KWXhWdabn9te0zvRtfS5mpB48+fvtPulG2SQNQds6eBz3b8zNvj7u38CN5a6MYdl63xSiK20fzTsrFNWh0/V7Xx9BgvbecVx/7qakHzA8rBBW1UVSc84Y7LGcuOltqt9PO1O3bvbf+9qyDt2Z6Wdxafv+7032uPlX5/6/HS65bew12jl83gzU8aZA1fxm0sbdNae26NOmre2/z5W/Zuz9rP9yi97hig0vusGQIuBWjt/5e26WqbwctyEPdi6fvC2loOR3vwmn23d3tarjmx9L5aHXN72u3uD+zbCmHvEvFBMR6MtcO6rWFbq+/WZ3vIre05e7C22Fdrbb9naL723CtC+TFXc63LLv38LpmGjmvWVlmq+Y5R8x2v9LeWtmX63KUe7cj27PmOt/Xc+fuqbbPSY0vD9NLv1F6/2/r7Z6SfJP2U4A3Ds7aVOlftUzNXGhK6/ly1T9P3eNAjPR4EEDwIkD54e69hPWE+6ehJ29qLLG2ePni9UkYUI8tkf2VBCWQ7G6qM6HrdlQXtpYwoj9ZlRGuvE30sKwuCAN2UBe2ljOj736/9navLiKLa4U7dlAXtlfE9KSP6+vw72+FuyoKSU0Z07HWHIc+lg5LuyoL2UkZUfq0rtudMz9OyHTL0gN2VBWVo1BrKiJa3Y+m5rdohwzGSfpJ0r8Ebhmdtay+ytLmZK4EyHABvk6XN0/d40CM9HgQQPAiQPnhXlwUdeX6G60NZtoNj0gcvo71nWa8ISJaTBByjLOhCvVd2cNzry4LusudCNv1TFgQBXlsWdMS8R5q2y9K0q9JzRqXpTUt/c20C8tv3yxNtnlwx1Pw0P8DX/j2vpi79rDSXsPT86T6YErrn2gyeHRvPPuiPywknGe5xxMd3vOl3jOlQJ7os6KlK39nmjy2d0BofK+0T+vARvFZl+29Qc7Z3rd1q23pP7RrP8voK9L3OfBC17MF8ID6bsiAI4OQKBBA8CJA+eNnKgqCF9MGDHn27jjcMuW7vBz36OQzlezyWZmS4kAttGGpCgB/DkO8uu1mpxKeVb7d+ELoy5VG09OXkitAtEzha+jEMQldjqRgVjiheThiG9SrpN5q3hQ8rzvg5DMdKWN5IW9CKywkQQFkQBNDjQQDBgwDpg6csiB6lD14GporR2pdFS9YOsDcfeC4j0NpqWdD030A7hpoQYLMsyNSoT77r0cpqWZDQfaUsiFa+nFxZupf/fB0A4JziyZWR3g+usVoWNH/s7eGzMi6tbJYF1Tz+BtqAllxOgADKgiCAHg8CCB4EOB08ZTiwnx4PAggeBEgfPENTepQ+eNCjn9tPiTG/a3NLZqEQLW3wxnC8fX4ofTLUhADpg6e3o0fpgwc9EjwIIHgQQFkQBNDjQQDBgwDpg6fsiB6lD97V3B2aCMXb+y0tWNLjxWx3hibC6mpBbukO13j9UBMifLuh7bRXmw/DeuvtDDGJ8qUsqGaByl7CN30vAsjdNlcLAtr7MQxCB3dbXS2o5+948/fmw4c7ba4W1PPB2PN7IzeXEyCAsiAIoMeDAIIHAW5fLQjQ40EIwYMAtwfP0BT0eBDitkVLrP4Dn24LntV/4JOhJgS4PXh6O9DjQQjBgwCCBwGUBUEAPR4EEDwIkD545nbSo/TBgx69frUgiGC1IAjwYxj0ZHC3b4uWDMPwZbWg6WPZAzrffsjqy8mV0m3bh+E5oVvafshmsx7vCaEbCRxPUTy5MnpS6IbBEJPn+Fi0pOZywvyxTHpe2Yj+pJ8k/bReF2qYuQIB0vd40CM9HgQQPAggeBBA8CCA4EEAC1NCAD0eBDh8He/Kns5MFXp3+gK6KV2wn6EmBDBlDALo8SCA4EEAwYMAggcBBA8C/B8+clLjAsE1yAAAAABJRU5ErkJggg==;" vertex="1" parent="1">
          <mxGeometry x="219" y="1640" width="222" height="303" as="geometry" />
        </mxCell>
        <mxCell id="0QcBcMVcxcDUxxgfM1Hy-95" value="" style="shape=image;verticalLabelPosition=bottom;labelBackgroundColor=default;verticalAlign=top;aspect=fixed;imageAspect=0;image=data:image/png,iVBORw0KGgoAAAANSUhEUgAAAVMAAACBCAYAAAB9ylnkAAAJLklEQVR4nO3dW1LkOgyA4TDFmoD9PwELAXbBeXKNx0eSL5FjOf1/VVMD6W63HCdq26Sdp6/vn98DAHDKn9UBAMAdkEwBwAHJFAAcTEmmb68vrmV5lleWPfKa0Xi016bts+o5apd2BCJ4Po7/nzTvH59LgpG8f3z+E1/+85k4Uzlvry/N5eTP7XldUtYl357H1KrcFzu143Ho+9CrjYEr/TmOvwfs+8enesL3mHUCpJPvbJz5STxaTl7HFT0uaV/s0o7Hoe8zrzYGrrbVnGnt5LZO0DPlRlP2kHek9Uiteu1aVzyG55YnpYO4PNDznoP0mPT62uPS+9biSbSkKD3POlmterVub6lXz/SCVU6raO1Yi7O024ceHku1Z5oPu6QTLj2WSAe8lfSk8rWy89efHQJKPSArznIIXduu1as3fqucHhHbEbiTrp5pyesEWTl8K+cbvcv1UCunNf7d2nFGuwCzNCVTjwPaSlojf00/wyrHK7l6zmtq0xRSz7CnnNFYzrZjT9kkVOzi6ev757d2SY11CU7tueVjPZfCSHGNln82TmsfnY3fulyqtXxtOkGrQ/R21MohsSKqp0de6ISTE4CXh06mAOBlq+tMASAqkikAOCCZAoCD08mUr/gBwM16pp6J/e2VJeMAtGu6aN+LdEF2LtJlStLXIvPHACB3Wc80JVIpKXl89zwvz9tVy8LREwb2dath/iz0RAHULBnmty5BF23JuN64E618KZaeOAHEcUnPVPraZktCirZkXM8wP5/C0Mq3pjxqzwcQy6U90167LRk3431JosAeLk2m+RJrOy0Z570gSk9Znkv5AZjn9EInvQsTlwk1t+uScVK51gdH65J6VjwAYrksmQLAnYWeM41u9pwugH2wnikAOOCifQBwQDIFAAcswQcADuiZAoCD5X/NZ2k7AHewNJlKF7OTUAHsiGE+ADggmQKAA5IpADggmQKAA5IpADhY+tf83qXtACCq5deZkkAB3AHDfABwwBJ8AOCAnikAOCCZAoCD8MmUJf4A7CB8Mo3EM7G/vb5c/kGx4v1W1LMmWjy4h+qlUTtdB2rdUvk4YsVfXmPrsZ/z22lLv1+tjCORklmktgFGmD3TlJzSv8if6Pk96pN0gnrFP+uE99rPUnz5tt74Z7V32S6zcPdYXIlhfgC1k1tLCpE/3Fqxhi3uYvk3oDyVvdPWJCUNi1uGzNbztdfk22vxJFo9rPppUx6t8afftef01NeKUfpde6/E2p9W/LUYtedq7wvkbtEzlXo3LYm0HFbnJ1E5BK0NocvfpfK1svPXz5pOseK36ptvt/aHVt+emLTyrekabX9qUwnacWEdDztMc2G9W/VMe82eU1tx8o2c9B71HU02nr09eo5Y6VbJNJ3Q+f+153u+52j5M+YNr04seR1W9eCYf8VK1e/mr740qvUEKefYRubarLrWHrPm4MrXSHGNlt+63ZpXlN6zN35pu6RW11o5rfPZWvwtbaw9d/WlZogt/EIn9DYA7OAWf4ACgNXC90wBYAf0TAHAAckUAByQTAHAAckUAByQTAHAAckUAByQTAHAAckUAByQTAHAAckUAByQTAHAAckUAByQTAHAAckUAByQTAHAAckUAByQTAHAAckUABxMSaaet/p9e32ZduvgkXLPxKO9Nm1fdYtkzS7tCETwfBz6rXsjKG8N7HXr6VROz91Py3vD976/dPvptD2PqZV1q+q83Ah62nH17cWBEX+O4+8B+/7xqZ7wPWadACmBnY0zT4Sj5Vj3kb+CtC/u0I5ebQxcbas509rJrZ14tRNyt95P2UO+i1q97lRX3M9zy5PSQVwe6HnPQXpMen3tcel9a/EkWlKUnmedrFa9Wre31KtnesEqp1WUdixf01qv3T708FiqPdN82CWdcOmxRDrgraQnla+Vnb/+7BBQ6gFZcZZD6Np2rV698Vvl9IjYjiPzzkBUXT3TkteJsHL4Vs43epfroVZOa/yR2rElZpItdtKUTD0OaCtpjfw1/QyrHK/k6jmvqU1T1IbLtXJGY5nVjqP1AiJ4+vr++a1dUmNdglN7bvmYNtyTXiPFNVr+2Thr835n4rcul2otX5tO0Oqwsh0lrfUlsSKqp6/vn9/VQazCyQnAy0MnUwDwstV1pgAQFckUAByQTAHAwelkylf8AICeKQC4CJFMre/g0/MFsIPlydRKpB7fSQeAKyxPpi3fWOLCegDRNX03/6zRBTZ6l6oDgFUuSaYjybBcKISECiCy5cN8DckTwE7CJlMA2Mklw3xLftuPfNV6awk4AIhmeTK1FmkGgF0wzAcAB6xnCgAO6JkCgAOSKQA4CJ9M+V4+gB2ET6YzeK1GNXtVq1r5fNCs5bn/V6yQtuL9Iq4E5xVP9dKona73bP3aqddKVLNXtFq9Ylbtls7Rj4dS7VbYK5Vt7XHele20ut20W5vXbnW+C7Nnmi+Dt/rErkmxSjFGjjvXG+fMAy7i0ohn3y//UohH/LP2v9d5J8V3ZjW2We1dtsssowsutXrIYf5VoifxfNhVDsFYGnGd1tXUWrfvZOdFjZZ/A8pT2TvNf5aShDUMkn5OWoe+PQdFT5zatnx7HoP3J7L13iN1LuOx6tuzL3q1Hg8tcZxps9rzR741WLZNb/zS/h+trxWj9Hvv+ShNkWjHT63zID1Xe99b9EylkzgfOqT/pedoB4L0c23YdeZk7omz9l75ELH8vRw+aj1TjTXM702kZYxW+dr+8Zp2kMqRYirjyVlJT4tTKjt//azpFCt+q75Sm0nljbSLtf9az0dtf2rHj3bMWseDVq9b9UxXiTQ00T4ctOeOlO+hJ86rzJ5TWzEMH0nGHvUd/RDwPBauPq5ulUxTA+b/X/2+EZQ9jIgixuaZRFp6rpoZ++bqfZ3XYdVc7tXHWPW7+a1Dy1lad0g5pyLN3eSPS7+3NL41vJXet3fo2xqn1i5nht5WLLXt6bEz9S23S+X3PN96v5bya3W1HpNi6Wmz0fJbt1vzitJ79sYvbZfU6lorxzp/z9bZygvS+4Zf6CRiDwaynrY6+8EDRHOrYT7W6kmGLT0SYCfhe6YAsINbXBoFAKuRTAHAAckUAByQTAHAAckUAByQTAHAAckUAByQTAHAwX/5fr/LlqrtFAAAAABJRU5ErkJggg==;" vertex="1" parent="1">
          <mxGeometry x="110" y="1460" width="339" height="129" as="geometry" />
        </mxCell>
        <mxCell id="0QcBcMVcxcDUxxgfM1Hy-96" value="" style="whiteSpace=wrap;html=1;glass=0;fontFamily=Helvetica;fontSize=16;fillColor=#f8cecc;strokeWidth=2;strokeColor=#b85450;fillStyle=auto;perimeterSpacing=0;opacity=50;" vertex="1" parent="1">
          <mxGeometry x="772" y="1778" width="80" height="50" as="geometry" />
        </mxCell>
        <mxCell id="0QcBcMVcxcDUxxgfM1Hy-97" value="" style="whiteSpace=wrap;html=1;glass=0;fontFamily=Helvetica;fontSize=16;fillColor=#f8cecc;strokeWidth=2;strokeColor=#b85450;fillStyle=auto;perimeterSpacing=0;opacity=50;" vertex="1" parent="1">
          <mxGeometry x="522" y="1683" width="80" height="50" as="geometry" />
        </mxCell>
        <mxCell id="0QcBcMVcxcDUxxgfM1Hy-98" value="" style="whiteSpace=wrap;html=1;glass=0;fontFamily=Helvetica;fontSize=16;fillColor=#f8cecc;strokeWidth=2;strokeColor=#b85450;fillStyle=auto;perimeterSpacing=0;opacity=50;" vertex="1" parent="1">
          <mxGeometry x="280" y="1700" width="80" height="50" as="geometry" />
        </mxCell>
        <mxCell id="0QcBcMVcxcDUxxgfM1Hy-99" value="" style="whiteSpace=wrap;html=1;glass=0;fontFamily=Helvetica;fontSize=16;fillColor=#f8cecc;strokeWidth=2;strokeColor=#b85450;fillStyle=auto;perimeterSpacing=0;opacity=50;" vertex="1" parent="1">
          <mxGeometry x="522" y="1852.5" width="80" height="50" as="geometry" />
        </mxCell>
        <mxCell id="0QcBcMVcxcDUxxgfM1Hy-100" value="" style="whiteSpace=wrap;html=1;glass=0;fontFamily=Helvetica;fontSize=16;fillColor=#f8cecc;strokeWidth=2;strokeColor=#b85450;fillStyle=auto;perimeterSpacing=0;opacity=50;" vertex="1" parent="1">
          <mxGeometry x="280" y="1820" width="80" height="50" as="geometry" />
        </mxCell>
      </root>
    </mxGraphModel>
  </diagram>
</mxfile>
